<?xml version="1.0" encoding="us-ascii" standalone="no"?><svg xmlns="http://www.w3.org/2000/svg" xmlns:xlink="http://www.w3.org/1999/xlink" contentStyleType="text/css" height="554px" preserveAspectRatio="none" style="width:380px;height:554px;background:#FFFFFF;" version="1.1" viewBox="0 0 380 554" width="380px" zoomAndPan="magnify"><defs/><g><!--cluster analytics-service Boundary--><g id="cluster_analytics-service Boundary"><path d="M19.1604,102.03 L232.1604,102.03 A3.75,3.75 0 0 1 234.6604,104.53 L241.6604,125.0446 L371.1604,125.0446 A2.5,2.5 0 0 1 373.6604,127.5446 L373.6604,414.57 A2.5,2.5 0 0 1 371.1604,417.07 L19.1604,417.07 A2.5,2.5 0 0 1 16.6604,414.57 L16.6604,104.53 A2.5,2.5 0 0 1 19.1604,102.03 " fill="#FFFFFF" style="stroke:#000000;stroke-width:1.0;"/><line style="stroke:#000000;stroke-width:1.0;" x1="16.6604" x2="241.6604" y1="125.0446" y2="125.0446"/><text fill="#000000" font-family="Verdana" font-size="14" font-weight="bold" lengthAdjust="spacing" textLength="212" x="20.6604" y="118.1052">analytics-service Boundary</text></g><!--entity listener--><g id="elem_listener"><rect fill="#FFFFFF" height="47.0146" rx="2.5" ry="2.5" style="stroke:#000000;stroke-width:1.0;" width="141" x="123.1604" y="138.03"/><rect fill="#FFFFFF" height="10" style="stroke:#000000;stroke-width:1.0;" width="15" x="244.1604" y="143.03"/><rect fill="#FFFFFF" height="2" style="stroke:#000000;stroke-width:1.0;" width="4" x="242.1604" y="145.03"/><rect fill="#FFFFFF" height="2" style="stroke:#000000;stroke-width:1.0;" width="4" x="242.1604" y="149.03"/><text fill="#000000" font-family="Verdana" font-size="14" lengthAdjust="spacing" textLength="101" x="138.1604" y="172.1052">QueueListener</text></g><!--entity service--><g id="elem_service"><rect fill="#FFFFFF" height="47.0146" rx="2.5" ry="2.5" style="stroke:#000000;stroke-width:1.0;" width="154" x="116.6604" y="246.04"/><rect fill="#FFFFFF" height="10" style="stroke:#000000;stroke-width:1.0;" width="15" x="250.6604" y="251.04"/><rect fill="#FFFFFF" height="2" style="stroke:#000000;stroke-width:1.0;" width="4" x="248.6604" y="253.04"/><rect fill="#FFFFFF" height="2" style="stroke:#000000;stroke-width:1.0;" width="4" x="248.6604" y="257.04"/><text fill="#000000" font-family="Verdana" font-size="14" lengthAdjust="spacing" textLength="114" x="131.6604" y="280.1152">AnalyticsService</text></g><!--entity aiClient--><g id="elem_aiClient"><rect fill="#FFFFFF" height="47.0146" rx="2.5" ry="2.5" style="stroke:#000000;stroke-width:1.0;" width="131" x="32.1604" y="354.06"/><rect fill="#FFFFFF" height="10" style="stroke:#000000;stroke-width:1.0;" width="15" x="143.1604" y="359.06"/><rect fill="#FFFFFF" height="2" style="stroke:#000000;stroke-width:1.0;" width="4" x="141.1604" y="361.06"/><rect fill="#FFFFFF" height="2" style="stroke:#000000;stroke-width:1.0;" width="4" x="141.1604" y="365.06"/><text fill="#000000" font-family="Verdana" font-size="14" lengthAdjust="spacing" textLength="91" x="47.1604" y="388.1352">GeminiClient</text></g><!--entity producer--><g id="elem_producer"><rect fill="#FFFFFF" height="47.0146" rx="2.5" ry="2.5" style="stroke:#000000;stroke-width:1.0;" width="160" x="197.6604" y="354.06"/><rect fill="#FFFFFF" height="10" style="stroke:#000000;stroke-width:1.0;" width="15" x="337.6604" y="359.06"/><rect fill="#FFFFFF" height="2" style="stroke:#000000;stroke-width:1.0;" width="4" x="335.6604" y="361.06"/><rect fill="#FFFFFF" height="2" style="stroke:#000000;stroke-width:1.0;" width="4" x="335.6604" y="365.06"/><text fill="#000000" font-family="Verdana" font-size="14" lengthAdjust="spacing" textLength="120" x="212.6604" y="388.1352">MessageProducer</text></g><!--entity aq--><g id="elem_aq"><path d="M132.1604,11 L255.1604,11 C260.1604,11 260.1604,33.0146 260.1604,33.0146 C260.1604,33.0146 260.1604,55.0293 255.1604,55.0293 L132.1604,55.0293 C127.1604,55.0293 127.1604,33.0146 127.1604,33.0146 C127.1604,33.0146 127.1604,11 132.1604,11 " fill="#FFFFFF" style="stroke:#000000;stroke-width:1.0;"/><path d="M255.1604,11 C250.1604,11 250.1604,33.0146 250.1604,33.0146 C250.1604,55.0293 255.1604,55.0293 255.1604,55.0293 " fill="none" style="stroke:#000000;stroke-width:1.0;"/><text fill="#000000" font-family="Verdana" font-size="14" font-style="italic" lengthAdjust="spacing" textLength="75" x="151.1604" y="30.0752">&#171;external&#187;</text><text fill="#000000" font-family="Verdana" font-size="14" lengthAdjust="spacing" textLength="113" x="132.1604" y="47.0898">Analytics Queue</text></g><!--entity nq--><g id="elem_nq"><path d="M213.1604,490.07 L352.1604,490.07 C357.1604,490.07 357.1604,512.0846 357.1604,512.0846 C357.1604,512.0846 357.1604,534.0993 352.1604,534.0993 L213.1604,534.0993 C208.1604,534.0993 208.1604,512.0846 208.1604,512.0846 C208.1604,512.0846 208.1604,490.07 213.1604,490.07 " fill="#FFFFFF" style="stroke:#000000;stroke-width:1.0;"/><path d="M352.1604,490.07 C347.1604,490.07 347.1604,512.0846 347.1604,512.0846 C347.1604,534.0993 352.1604,534.0993 352.1604,534.0993 " fill="none" style="stroke:#000000;stroke-width:1.0;"/><text fill="#000000" font-family="Verdana" font-size="14" font-style="italic" lengthAdjust="spacing" textLength="75" x="240.1604" y="509.1452">&#171;external&#187;</text><text fill="#000000" font-family="Verdana" font-size="14" lengthAdjust="spacing" textLength="129" x="213.1604" y="526.1598">Notification Queue</text></g><!--entity gemini--><g id="elem_gemini"><path d="M21.6633,489.6469 C24.3724,484.3755 29.4745,483.0826 32.9401,488.8759 C35.4104,483.3468 40.3237,481.3607 44.8144,486.6603 C47.5248,480.1878 52.3674,479.8997 56.7225,484.9624 C60.4693,478.9829 65.7087,479.0994 68.5734,485.7875 C71.9938,478.4 76.1358,477.9035 81.793,483.5122 C84.5012,476.4647 90.1437,476.2983 94.7359,481.5256 C99.9659,477.4591 103.569,478.0497 106.4976,484.1801 C109.2892,479.4779 114.151,478.4806 117.278,483.8199 C122.1529,478.8404 127.042,479.0218 129.3543,486.337 C133.448,479.533 138.8594,481.3828 142.2802,487.0352 C146.6713,481.2062 151.5446,482.032 154.1945,488.6959 C157.8067,483.6592 162.8501,483.7141 166.3365,488.8462 C173.4376,490.8397 174.8059,494.798 170.516,500.7806 C177.5,502.8579 179.0522,507.1555 174.3243,512.9101 C178.8763,518.3216 176.9983,523.3071 170.6124,525.4916 C174.5664,529.7134 174.2568,534.8447 167.7316,536.264 C164.7325,541.9377 159.1515,544.3978 154.7732,537.7098 C150.7792,543.7304 146.8881,545.6118 141.4104,539.3201 C137.6804,543.3794 134.0529,543.2573 131.2487,538.2792 C127.4709,544.5248 122.1194,545.5335 117.6477,539.0188 C114.2826,544.4437 110.8099,545.8761 105.9442,540.6709 C103.1328,547.4115 98.1769,547.7586 93.8304,542.1803 C90.41,546.8599 85.3881,546.4093 82.6383,541.4053 C78.0972,546.4772 72.5038,546.3644 69.4074,539.7674 C64.7539,544.773 60.2833,544.7279 56.6442,538.6041 C53.0636,544.8904 47.6309,543.4049 44.6255,538.0122 C41.1443,542.6012 37.211,542.5619 33.7764,537.9572 C29.564,544.8499 24.7578,544.3161 20.8909,537.6294 C14.2405,535.0912 13.1992,528.6636 18.6504,524.1186 C11.4953,521.151 11,517.2861 16.7299,512.236 C11.9414,507.7147 14.0036,503.3948 19.5456,501.6114 C13.8335,496.4221 15.2706,492.6936 21.6633,489.6469 " fill="#FFFFFF" style="stroke:#000000;stroke-width:1.0;"/><text fill="#000000" font-family="Verdana" font-size="14" font-style="italic" lengthAdjust="spacing" textLength="75" x="55.1604" y="509.1452">&#171;external&#187;</text><text fill="#000000" font-family="Verdana" font-size="14" lengthAdjust="spacing" textLength="132" x="26.6604" y="526.1598">Google Gemini API</text></g><!--link aq to listener--><g id="link_aq_listener"><path d="M193.6604,55.47 C193.6604,78.32 193.6604,108.32 193.6604,131.68 " fill="none" id="aq-to-listener" style="stroke:#000000;stroke-width:1.0;"/><polygon fill="#000000" points="193.6604,137.68,197.6604,128.68,193.6604,132.68,189.6604,128.68,193.6604,137.68" style="stroke:#000000;stroke-width:1.0;"/></g><!--link listener to service--><g id="link_listener_service"><path d="M193.6604,185.54 C193.6604,203.32 193.6604,221.82 193.6604,239.59 " fill="none" id="listener-to-service" style="stroke:#000000;stroke-width:1.0;"/><polygon fill="#000000" points="193.6604,245.59,197.6604,236.59,193.6604,240.59,189.6604,236.59,193.6604,245.59" style="stroke:#000000;stroke-width:1.0;"/></g><!--link service to aiClient--><g id="link_service_aiClient"><path d="M172.8304,293.55 C156.7304,311.33 138.5676,331.3823 122.4776,349.1523 " fill="none" id="service-to-aiClient" style="stroke:#000000;stroke-width:1.0;"/><polygon fill="#000000" points="118.4504,353.6,127.4563,349.6133,121.8064,349.8936,121.526,344.2437,118.4504,353.6" style="stroke:#000000;stroke-width:1.0;"/></g><!--link aiClient to gemini--><g id="link_aiClient_gemini"><path d="M94.507,407.3106 C93.537,417.0706 93.1404,422.63 92.6604,433.07 C91.9504,448.49 91.8258,459.6502 91.9558,473.9402 " fill="none" id="aiClient-gemini" style="stroke:#000000;stroke-width:1.0;"/><polygon fill="#000000" points="95.1004,401.34,90.2299,409.9003,94.6059,406.3155,98.1907,410.6915,95.1004,401.34" style="stroke:#000000;stroke-width:1.0;"/><polygon fill="#000000" points="92.0104,479.94,95.9283,470.904,91.9649,474.9402,87.9287,470.9768,92.0104,479.94" style="stroke:#000000;stroke-width:1.0;"/><text fill="#000000" font-family="Verdana" font-size="13" lengthAdjust="spacing" textLength="145" x="93.6604" y="447.1398">HTTPS / REST (JSON)</text></g><!--link service to producer--><g id="link_service_producer"><path d="M211.8904,293.55 C225.9804,311.33 241.6642,331.1273 255.7442,348.8973 " fill="none" id="service-to-producer" style="stroke:#000000;stroke-width:1.0;"/><polygon fill="#000000" points="259.4704,353.6,257.0162,344.0618,256.3652,349.6811,250.7459,349.03,259.4704,353.6" style="stroke:#000000;stroke-width:1.0;"/></g><!--link producer to nq--><g id="link_producer_nq"><path d="M278.5204,401.34 C279.4604,426.21 280.725,459.7042 281.635,483.9142 " fill="none" id="producer-to-nq" style="stroke:#000000;stroke-width:1.0;"/><polygon fill="#000000" points="281.8604,489.91,285.5195,480.7661,281.6726,484.9135,277.5251,481.0666,281.8604,489.91" style="stroke:#000000;stroke-width:1.0;"/><text fill="#000000" font-family="Verdana" font-size="13" lengthAdjust="spacing" textLength="43" x="281.3104" y="447.1398">HTTPS</text></g><!--SRC=[PL7BJiCm4BpxAvPSW4F4lQegXP0-K6X2ugf8Y8FbBiKYjTF4HbI8VyTn7j2Gq-vuTdPsSg7Vy81G5an8GYx1zts8dcYKhOCOQ98s03aQD0XU85bnqeBNyDW07h0Qs16cK_pKMDd7sQodhfKMhu8pBPJymvOZDYaPVsTxEy1wRR_6waDmX5jbv8vL9m- -2DYFgqEf94eDpqum5hL6YTLB8rnqpPWvMCvRLKVkDeov2pm8AS92sCxnMDUCYGzOrzPqMgcTuPs1icl8zxyKmpZPtBaSUQ7C3ho5Kli2eTq7GRfosUpRzZoVLceU9zlSATYuVN_sUsvVEBI_oqxHPGHXjgAhq1eOd0HPbcn97t0pCfpO5p1juCxB1BmbfMaEDv15EOMh-pnPNtlDWhcm3a4PNHfzfZW4qHSEjJz-0awB_000]--></g></svg>