<?xml version="1.0" encoding="us-ascii" standalone="no"?><svg xmlns="http://www.w3.org/2000/svg" xmlns:xlink="http://www.w3.org/1999/xlink" contentStyleType="text/css" height="1179px" preserveAspectRatio="none" style="width:1491px;height:1179px;background:#FFFFFF;" version="1.1" viewBox="0 0 1491 1179" width="1491px" zoomAndPan="magnify"><defs/><g><rect fill="none" height="321.0605" style="stroke:#000000;stroke-width:1.5;" width="1217" x="20" y="351.9492"/><rect fill="none" height="352.3711" style="stroke:#000000;stroke-width:1.5;" width="1464" x="10" y="774.9414"/><rect fill="none" height="207.1289" style="stroke:#000000;stroke-width:1.5;" width="1444" x="20" y="913.1836"/><line style="stroke:#181818;stroke-width:0.5;stroke-dasharray:5.0,5.0;" x1="90" x2="90" y1="100.4648" y2="1134.3125"/><line style="stroke:#A80036;stroke-width:1.0;stroke-dasharray:1.0,4.0;" x1="90" x2="90" y1="1134.3125" y2="1162.3125"/><line style="stroke:#181818;stroke-width:0.5;stroke-dasharray:5.0,5.0;" x1="90" x2="90" y1="1162.3125" y2="1172.3125"/><line style="stroke:#181818;stroke-width:0.5;stroke-dasharray:5.0,5.0;" x1="304" x2="304" y1="100.4648" y2="1134.3125"/><line style="stroke:#A80036;stroke-width:1.0;stroke-dasharray:1.0,4.0;" x1="304" x2="304" y1="1134.3125" y2="1162.3125"/><line style="stroke:#181818;stroke-width:0.5;stroke-dasharray:5.0,5.0;" x1="304" x2="304" y1="1162.3125" y2="1172.3125"/><line style="stroke:#181818;stroke-width:0.5;stroke-dasharray:5.0,5.0;" x1="577.5" x2="577.5" y1="100.4648" y2="1134.3125"/><line style="stroke:#A80036;stroke-width:1.0;stroke-dasharray:1.0,4.0;" x1="577.5" x2="577.5" y1="1134.3125" y2="1162.3125"/><line style="stroke:#181818;stroke-width:0.5;stroke-dasharray:5.0,5.0;" x1="577.5" x2="577.5" y1="1162.3125" y2="1172.3125"/><line style="stroke:#181818;stroke-width:0.5;stroke-dasharray:5.0,5.0;" x1="783.5" x2="783.5" y1="100.4648" y2="1134.3125"/><line style="stroke:#A80036;stroke-width:1.0;stroke-dasharray:1.0,4.0;" x1="783.5" x2="783.5" y1="1134.3125" y2="1162.3125"/><line style="stroke:#181818;stroke-width:0.5;stroke-dasharray:5.0,5.0;" x1="783.5" x2="783.5" y1="1162.3125" y2="1172.3125"/><line style="stroke:#181818;stroke-width:0.5;stroke-dasharray:5.0,5.0;" x1="1072" x2="1072" y1="100.4648" y2="1134.3125"/><line style="stroke:#A80036;stroke-width:1.0;stroke-dasharray:1.0,4.0;" x1="1072" x2="1072" y1="1134.3125" y2="1162.3125"/><line style="stroke:#181818;stroke-width:0.5;stroke-dasharray:5.0,5.0;" x1="1072" x2="1072" y1="1162.3125" y2="1172.3125"/><line style="stroke:#181818;stroke-width:0.5;stroke-dasharray:5.0,5.0;" x1="1178" x2="1178" y1="100.4648" y2="1134.3125"/><line style="stroke:#A80036;stroke-width:1.0;stroke-dasharray:1.0,4.0;" x1="1178" x2="1178" y1="1134.3125" y2="1162.3125"/><line style="stroke:#181818;stroke-width:0.5;stroke-dasharray:5.0,5.0;" x1="1178" x2="1178" y1="1162.3125" y2="1172.3125"/><line style="stroke:#181818;stroke-width:0.5;stroke-dasharray:5.0,5.0;" x1="1345" x2="1345" y1="100.4648" y2="1134.3125"/><line style="stroke:#A80036;stroke-width:1.0;stroke-dasharray:1.0,4.0;" x1="1345" x2="1345" y1="1134.3125" y2="1162.3125"/><line style="stroke:#181818;stroke-width:0.5;stroke-dasharray:5.0,5.0;" x1="1345" x2="1345" y1="1162.3125" y2="1172.3125"/><text fill="#000000" font-family="sans-serif" font-size="14" lengthAdjust="spacing" textLength="114" x="30" y="97.5117">User (React App)</text><ellipse cx="90" cy="32.4766" fill="#E2E2F0" rx="8" ry="8" style="stroke:#181818;stroke-width:0.5;"/><path d="M90,40.4766 L90,67.4766 M77,48.4766 L103,48.4766 M90,67.4766 L77,82.4766 M90,67.4766 L103,82.4766 " fill="none" style="stroke:#181818;stroke-width:0.5;"/><rect fill="#E2E2F0" height="63.4648" rx="2.5" ry="2.5" style="stroke:#181818;stroke-width:0.5;" width="122" x="243" y="36"/><text fill="#000000" font-family="sans-serif" font-size="14" font-style="italic" lengthAdjust="spacing" textLength="108" x="250" y="56.5352">&#171;Infrastructure&#187;</text><text fill="#000000" font-family="sans-serif" font-size="14" lengthAdjust="spacing" textLength="83" x="262.5" y="73.0234">API Gateway</text><text fill="#000000" font-family="sans-serif" font-size="14" lengthAdjust="spacing" textLength="100" x="254" y="89.5117">(Spring Cloud)</text><rect fill="#E2E2F0" height="63.4648" rx="2.5" ry="2.5" style="stroke:#181818;stroke-width:0.5;" width="127" x="514.5" y="36"/><text fill="#000000" font-family="sans-serif" font-size="14" font-style="italic" lengthAdjust="spacing" textLength="62" x="547" y="56.5352">&#171;Service&#187;</text><text fill="#000000" font-family="sans-serif" font-size="14" lengthAdjust="spacing" textLength="85" x="535.5" y="73.0234">Auth Service</text><text fill="#000000" font-family="sans-serif" font-size="14" lengthAdjust="spacing" textLength="113" x="521.5" y="89.5117">(Spring Security)</text><rect fill="#E2E2F0" height="46.9766" rx="2.5" ry="2.5" style="stroke:#181818;stroke-width:0.5;" width="97" x="735.5" y="52.4883"/><text fill="#000000" font-family="sans-serif" font-size="14" font-style="italic" lengthAdjust="spacing" textLength="62" x="753" y="73.0234">&#171;Service&#187;</text><text fill="#000000" font-family="sans-serif" font-size="14" lengthAdjust="spacing" textLength="83" x="742.5" y="89.5117">User Service</text><text fill="#000000" font-family="sans-serif" font-size="14" font-style="italic" lengthAdjust="spacing" textLength="77" x="1030.5" y="64.5352">&#171;Database&#187;</text><text fill="#000000" font-family="sans-serif" font-size="14" lengthAdjust="spacing" textLength="53" x="1042.5" y="81.0234">User DB</text><text fill="#000000" font-family="sans-serif" font-size="14" lengthAdjust="spacing" textLength="88" x="1025" y="97.5117">(PostgreSQL)</text><path d="M1054,15 C1054,5 1072,5 1072,5 C1072,5 1090,5 1090,15 L1090,41 C1090,51 1072,51 1072,51 C1072,51 1054,51 1054,41 L1054,15 " fill="#E2E2F0" style="stroke:#181818;stroke-width:1.5;"/><path d="M1054,15 C1054,25 1072,25 1072,25 C1072,25 1090,25 1090,15 " fill="none" style="stroke:#181818;stroke-width:1.5;"/><text fill="#000000" font-family="sans-serif" font-size="14" font-style="italic" lengthAdjust="spacing" textLength="56" x="1147" y="64.5352">&#171;Cache&#187;</text><text fill="#000000" font-family="sans-serif" font-size="14" lengthAdjust="spacing" textLength="92" x="1129" y="81.0234">Session Store</text><text fill="#000000" font-family="sans-serif" font-size="14" lengthAdjust="spacing" textLength="47" x="1151.5" y="97.5117">(Redis)</text><path d="M1160,15 C1160,5 1178,5 1178,5 C1178,5 1196,5 1196,15 L1196,41 C1196,51 1178,51 1178,51 C1178,51 1160,51 1160,41 L1160,15 " fill="#E2E2F0" style="stroke:#181818;stroke-width:1.5;"/><path d="M1160,15 C1160,25 1178,25 1178,25 C1178,25 1196,25 1196,15 " fill="none" style="stroke:#181818;stroke-width:1.5;"/><rect fill="#E2E2F0" height="30.4883" rx="2.5" ry="2.5" style="stroke:#181818;stroke-width:0.5;" width="217" x="1237" y="68.9766"/><text fill="#000000" font-family="sans-serif" font-size="14" lengthAdjust="spacing" textLength="203" x="1244" y="89.5117">Workout Management Service</text><rect fill="#EEEEEE" height="3" style="stroke:#EEEEEE;stroke-width:1.0;" width="1484" x="0" y="131.1201"/><line style="stroke:#000000;stroke-width:1.0;" x1="0" x2="1484" y1="131.1201" y2="131.1201"/><line style="stroke:#000000;stroke-width:1.0;" x1="0" x2="1484" y1="134.1201" y2="134.1201"/><rect fill="#EEEEEE" height="23.3105" style="stroke:#000000;stroke-width:2.0;" width="170" x="657" y="120.4648"/><text fill="#000000" font-family="sans-serif" font-size="13" font-weight="bold" lengthAdjust="spacing" textLength="152" x="663" y="137.0332">Authentication (Login)</text><polygon fill="#181818" points="292,186.3965,302,190.3965,292,194.3965" style="stroke:#181818;stroke-width:1.0;"/><line style="stroke:#181818;stroke-width:1.0;" x1="90" x2="298" y1="190.3965" y2="190.3965"/><text fill="#000000" font-family="sans-serif" font-size="13" lengthAdjust="spacing" textLength="110" x="142" y="170.3438">POST /auth/login</text><text fill="#000000" font-family="sans-serif" font-size="13" lengthAdjust="spacing" textLength="77" x="158.5" y="185.6543">(credentials)</text><polygon fill="#181818" points="566,215.707,576,219.707,566,223.707" style="stroke:#181818;stroke-width:1.0;"/><line style="stroke:#181818;stroke-width:1.0;" x1="304" x2="572" y1="219.707" y2="219.707"/><text fill="#000000" font-family="sans-serif" font-size="13" lengthAdjust="spacing" textLength="143" x="369.5" y="214.9648">Forward Login Request</text><polygon fill="#181818" points="772,245.0176,782,249.0176,772,253.0176" style="stroke:#181818;stroke-width:1.0;"/><line style="stroke:#181818;stroke-width:1.0;" x1="578" x2="778" y1="249.0176" y2="249.0176"/><text fill="#000000" font-family="sans-serif" font-size="13" lengthAdjust="spacing" textLength="138" x="612" y="244.2754">Get User by Username</text><polygon fill="#181818" points="1060,274.3281,1070,278.3281,1060,282.3281" style="stroke:#181818;stroke-width:1.0;"/><line style="stroke:#181818;stroke-width:1.0;" x1="784" x2="1066" y1="278.3281" y2="278.3281"/><text fill="#000000" font-family="sans-serif" font-size="13" lengthAdjust="spacing" textLength="203" x="826.5" y="273.5859">SELECT user WHERE username=?</text><polygon fill="#181818" points="795,303.6387,785,307.6387,795,311.6387" style="stroke:#181818;stroke-width:1.0;"/><line style="stroke:#181818;stroke-width:1.0;stroke-dasharray:2.0,2.0;" x1="789" x2="1071" y1="307.6387" y2="307.6387"/><text fill="#000000" font-family="sans-serif" font-size="13" lengthAdjust="spacing" textLength="264" x="796" y="302.8965">User Profile + Hashed Credentials + Roles</text><polygon fill="#181818" points="589,332.9492,579,336.9492,589,340.9492" style="stroke:#181818;stroke-width:1.0;"/><line style="stroke:#181818;stroke-width:1.0;stroke-dasharray:2.0,2.0;" x1="583" x2="783" y1="336.9492" y2="336.9492"/><text fill="#000000" font-family="sans-serif" font-size="13" lengthAdjust="spacing" textLength="76" x="643" y="332.207">User Details</text><path d="M20,351.9492 L82,351.9492 L82,359.2598 L72,369.2598 L20,369.2598 L20,351.9492 " fill="#EEEEEE" style="stroke:#000000;stroke-width:1.5;"/><rect fill="none" height="321.0605" style="stroke:#000000;stroke-width:1.5;" width="1217" x="20" y="351.9492"/><text fill="#000000" font-family="sans-serif" font-size="13" font-weight="bold" lengthAdjust="spacing" textLength="17" x="35" y="365.5176">alt</text><text fill="#000000" font-family="sans-serif" font-size="11" font-weight="bold" lengthAdjust="spacing" textLength="102" x="97" y="364.584">[Successful Login]</text><line style="stroke:#181818;stroke-width:1.0;" x1="578" x2="620" y1="390.5703" y2="390.5703"/><line style="stroke:#181818;stroke-width:1.0;" x1="620" x2="620" y1="390.5703" y2="403.5703"/><line style="stroke:#181818;stroke-width:1.0;" x1="579" x2="620" y1="403.5703" y2="403.5703"/><polygon fill="#181818" points="589,399.5703,579,403.5703,589,407.5703" style="stroke:#181818;stroke-width:1.0;"/><text fill="#000000" font-family="sans-serif" font-size="13" lengthAdjust="spacing" textLength="135" x="585" y="385.8281">Verify Password Hash</text><line style="stroke:#181818;stroke-width:1.0;" x1="578" x2="620" y1="432.8809" y2="432.8809"/><line style="stroke:#181818;stroke-width:1.0;" x1="620" x2="620" y1="432.8809" y2="445.8809"/><line style="stroke:#181818;stroke-width:1.0;" x1="579" x2="620" y1="445.8809" y2="445.8809"/><polygon fill="#181818" points="589,441.8809,579,445.8809,589,449.8809" style="stroke:#181818;stroke-width:1.0;"/><text fill="#000000" font-family="sans-serif" font-size="13" lengthAdjust="spacing" textLength="166" x="585" y="428.1387">Generate unique JTI (UUID)</text><polygon fill="#181818" points="1166,486.502,1176,490.502,1166,494.502" style="stroke:#181818;stroke-width:1.0;"/><line style="stroke:#181818;stroke-width:1.0;" x1="578" x2="1172" y1="490.502" y2="490.502"/><text fill="#000000" font-family="sans-serif" font-size="13" lengthAdjust="spacing" textLength="161" x="795.5" y="470.4492">SET jti:&lt;uuid&gt; (metadata)</text><text fill="#000000" font-family="sans-serif" font-size="13" lengthAdjust="spacing" textLength="140" x="808" y="485.7598">(TTL = JWT expiration)</text><line style="stroke:#181818;stroke-width:1.0;" x1="578" x2="620" y1="519.8125" y2="519.8125"/><line style="stroke:#181818;stroke-width:1.0;" x1="620" x2="620" y1="519.8125" y2="532.8125"/><line style="stroke:#181818;stroke-width:1.0;" x1="579" x2="620" y1="532.8125" y2="532.8125"/><polygon fill="#181818" points="589,528.8125,579,532.8125,589,536.8125" style="stroke:#181818;stroke-width:1.0;"/><text fill="#000000" font-family="sans-serif" font-size="13" lengthAdjust="spacing" textLength="192" x="585" y="515.0703">Sign JWT (payload includes JTI)</text><polygon fill="#181818" points="315,558.123,305,562.123,315,566.123" style="stroke:#181818;stroke-width:1.0;"/><line style="stroke:#181818;stroke-width:1.0;stroke-dasharray:2.0,2.0;" x1="309" x2="577" y1="562.123" y2="562.123"/><text fill="#000000" font-family="sans-serif" font-size="13" lengthAdjust="spacing" textLength="87" x="397.5" y="557.3809">200 OK + JWT</text><polygon fill="#181818" points="101,587.4336,91,591.4336,101,595.4336" style="stroke:#181818;stroke-width:1.0;"/><line style="stroke:#181818;stroke-width:1.0;stroke-dasharray:2.0,2.0;" x1="95" x2="303" y1="591.4336" y2="591.4336"/><text fill="#000000" font-family="sans-serif" font-size="13" lengthAdjust="spacing" textLength="87" x="153.5" y="586.6914">200 OK + JWT</text><line style="stroke:#000000;stroke-width:1.0;stroke-dasharray:2.0,2.0;" x1="20" x2="1237" y1="600.4336" y2="600.4336"/><text fill="#000000" font-family="sans-serif" font-size="11" font-weight="bold" lengthAdjust="spacing" textLength="114" x="25" y="611.0684">[Invalid Credentials]</text><polygon fill="#181818" points="315,631.6992,305,635.6992,315,639.6992" style="stroke:#181818;stroke-width:1.0;"/><line style="stroke:#181818;stroke-width:1.0;stroke-dasharray:2.0,2.0;" x1="309" x2="577" y1="635.6992" y2="635.6992"/><text fill="#000000" font-family="sans-serif" font-size="13" lengthAdjust="spacing" textLength="112" x="385" y="630.957">401 Unauthorized</text><polygon fill="#181818" points="101,661.0098,91,665.0098,101,669.0098" style="stroke:#181818;stroke-width:1.0;"/><line style="stroke:#181818;stroke-width:1.0;stroke-dasharray:2.0,2.0;" x1="95" x2="303" y1="665.0098" y2="665.0098"/><text fill="#000000" font-family="sans-serif" font-size="13" lengthAdjust="spacing" textLength="112" x="141" y="660.2676">401 Unauthorized</text><rect fill="#EEEEEE" height="3" style="stroke:#EEEEEE;stroke-width:1.0;" width="1484" x="0" y="700.665"/><line style="stroke:#000000;stroke-width:1.0;" x1="0" x2="1484" y1="700.665" y2="700.665"/><line style="stroke:#000000;stroke-width:1.0;" x1="0" x2="1484" y1="703.665" y2="703.665"/><rect fill="#EEEEEE" height="23.3105" style="stroke:#000000;stroke-width:2.0;" width="264" x="610" y="690.0098"/><text fill="#000000" font-family="sans-serif" font-size="13" font-weight="bold" lengthAdjust="spacing" textLength="246" x="616" y="706.5781">Authorization (Subsequent Request)</text><polygon fill="#181818" points="292,755.9414,302,759.9414,292,763.9414" style="stroke:#181818;stroke-width:1.0;"/><line style="stroke:#181818;stroke-width:1.0;" x1="90" x2="298" y1="759.9414" y2="759.9414"/><text fill="#000000" font-family="sans-serif" font-size="13" lengthAdjust="spacing" textLength="120" x="137" y="739.8887">GET /api/workouts</text><text fill="#000000" font-family="sans-serif" font-size="13" lengthAdjust="spacing" textLength="125" x="134.5" y="755.1992">(Header: Bearer JWT)</text><path d="M10,774.9414 L182,774.9414 L182,782.252 L172,792.252 L10,792.252 L10,774.9414 " fill="#EEEEEE" style="stroke:#000000;stroke-width:1.5;"/><rect fill="none" height="352.3711" style="stroke:#000000;stroke-width:1.5;" width="1464" x="10" y="774.9414"/><text fill="#000000" font-family="sans-serif" font-size="13" font-weight="bold" lengthAdjust="spacing" textLength="127" x="25" y="788.5098">Request Validation</text><line style="stroke:#181818;stroke-width:1.0;" x1="304" x2="346" y1="813.5625" y2="813.5625"/><line style="stroke:#181818;stroke-width:1.0;" x1="346" x2="346" y1="813.5625" y2="826.5625"/><line style="stroke:#181818;stroke-width:1.0;" x1="305" x2="346" y1="826.5625" y2="826.5625"/><polygon fill="#181818" points="315,822.5625,305,826.5625,315,830.5625" style="stroke:#181818;stroke-width:1.0;"/><text fill="#000000" font-family="sans-serif" font-size="13" lengthAdjust="spacing" textLength="206" x="311" y="808.8203">Validate Cryptographic Signature</text><line style="stroke:#181818;stroke-width:1.0;" x1="304" x2="346" y1="855.873" y2="855.873"/><line style="stroke:#181818;stroke-width:1.0;" x1="346" x2="346" y1="855.873" y2="868.873"/><line style="stroke:#181818;stroke-width:1.0;" x1="305" x2="346" y1="868.873" y2="868.873"/><polygon fill="#181818" points="315,864.873,305,868.873,315,872.873" style="stroke:#181818;stroke-width:1.0;"/><text fill="#000000" font-family="sans-serif" font-size="13" lengthAdjust="spacing" textLength="143" x="311" y="851.1309">Extract JTI from claims</text><polygon fill="#181818" points="1166,894.1836,1176,898.1836,1166,902.1836" style="stroke:#181818;stroke-width:1.0;"/><line style="stroke:#181818;stroke-width:1.0;" x1="304" x2="1172" y1="898.1836" y2="898.1836"/><text fill="#000000" font-family="sans-serif" font-size="13" lengthAdjust="spacing" textLength="210" x="636" y="893.4414">GET jti:&lt;uuid&gt; (Liveliness Check)</text><path d="M20,913.1836 L82,913.1836 L82,920.4941 L72,930.4941 L20,930.4941 L20,913.1836 " fill="#EEEEEE" style="stroke:#000000;stroke-width:1.5;"/><rect fill="none" height="207.1289" style="stroke:#000000;stroke-width:1.5;" width="1444" x="20" y="913.1836"/><text fill="#000000" font-family="sans-serif" font-size="13" font-weight="bold" lengthAdjust="spacing" textLength="17" x="35" y="926.752">alt</text><text fill="#000000" font-family="sans-serif" font-size="11" font-weight="bold" lengthAdjust="spacing" textLength="106" x="97" y="925.8184">[jti exists in Redis]</text><polygon fill="#181818" points="315,947.8047,305,951.8047,315,955.8047" style="stroke:#181818;stroke-width:1.0;"/><line style="stroke:#181818;stroke-width:1.0;stroke-dasharray:2.0,2.0;" x1="309" x2="1177" y1="951.8047" y2="951.8047"/><text fill="#000000" font-family="sans-serif" font-size="13" lengthAdjust="spacing" textLength="109" x="686.5" y="947.0625">Session Metadata</text><line style="stroke:#181818;stroke-width:1.0;" x1="304" x2="346" y1="996.4258" y2="996.4258"/><line style="stroke:#181818;stroke-width:1.0;" x1="346" x2="346" y1="996.4258" y2="1009.4258"/><line style="stroke:#181818;stroke-width:1.0;" x1="305" x2="346" y1="1009.4258" y2="1009.4258"/><polygon fill="#181818" points="315,1005.4258,305,1009.4258,315,1013.4258" style="stroke:#181818;stroke-width:1.0;"/><text fill="#000000" font-family="sans-serif" font-size="13" lengthAdjust="spacing" textLength="110" x="386" y="976.373">Decorate Request</text><text fill="#000000" font-family="sans-serif" font-size="13" lengthAdjust="spacing" textLength="260" x="311" y="991.6836">Add Header X-User-ID and X-User-Roles</text><polygon fill="#181818" points="1333.5,1034.7363,1343.5,1038.7363,1333.5,1042.7363" style="stroke:#181818;stroke-width:1.0;"/><line style="stroke:#181818;stroke-width:1.0;" x1="304" x2="1339.5" y1="1038.7363" y2="1038.7363"/><text fill="#000000" font-family="sans-serif" font-size="13" lengthAdjust="spacing" textLength="334" x="657.75" y="1033.9941">GET /workouts (X-User-ID: 123, X-User-Roles: User)</text><line style="stroke:#000000;stroke-width:1.0;stroke-dasharray:2.0,2.0;" x1="20" x2="1464" y1="1047.7363" y2="1047.7363"/><text fill="#000000" font-family="sans-serif" font-size="11" font-weight="bold" lengthAdjust="spacing" textLength="177" x="25" y="1058.3711">[jti missing (Revoked/Expired)]</text><polygon fill="#181818" points="315,1079.002,305,1083.002,315,1087.002" style="stroke:#181818;stroke-width:1.0;"/><line style="stroke:#181818;stroke-width:1.0;stroke-dasharray:2.0,2.0;" x1="309" x2="1177" y1="1083.002" y2="1083.002"/><text fill="#000000" font-family="sans-serif" font-size="13" lengthAdjust="spacing" textLength="24" x="729" y="1078.2598">null</text><polygon fill="#181818" points="101,1108.3125,91,1112.3125,101,1116.3125" style="stroke:#181818;stroke-width:1.0;"/><line style="stroke:#181818;stroke-width:1.0;stroke-dasharray:2.0,2.0;" x1="95" x2="303" y1="1112.3125" y2="1112.3125"/><text fill="#000000" font-family="sans-serif" font-size="13" lengthAdjust="spacing" textLength="190" x="102" y="1107.5703">401 Unauthorized / Forbidden</text><!--SRC=[TLHDSnev4BtFh-Zo2MhNnidkYGAdR63nP765zK2SGowor83MGfhL1mxvzTkIPh313WTWHgzVTxz-QlSaTSqisqBbzmh1UIkv3rjLkCE9m_y2Qevtw1nRuxMIQmqSjKTR58nxO-5iwT12vnxf4Qxhkdi6pC6oB8Z1IovhfZsSNSzBc3AFpsp_NNUgsagzXf4oGMJyz046WrAlBACo0fLXyUhgX2Bu3LHeTvBZ2qU5F5ZfzvacOGQ31dNAa2fjpdALzABQyQC8mJnxP0uR-FY6SisDyskBrJ-pd6PyGo7Z1dWKKv5GqcYIrDXOvJqAwN9G-ajn8yOtCQWO3bEzfARapCUepioifUx2S5WKonBEhw8kVPX_gHRGOuJjgGWWNcvHn42cNBSW445JxttuozXdPWKaAafA0tI-AD8feTgM-p15dvxWSPz-DTjYqHuJafhiGpMPJKOB217tS3kvdwI_4JhyL13Y_8WoqSsjMKdoqszmozm61OnUQgMNzqQXUydpKdYM6psJof6vb8SgS4vwheBAtHH0dxQH9kehMhdQmvmvzsoexPZpFTmKDLeo80GjIHBul2YXiroMu-uHEWyfzhs0Vxti3qAGuWewMwehJhaB9FvYCOCXV7vO0FwefKspwxwNj8hN9U8wDTihmmH8pLKGw6B-ro7jg3zUNiANlqacYah7SRPHu_Bq41NvhTGxfkIHnE-G_ddv0POw-iTO-HF56-8t0DJYuC_ugh5d5HxpHl2jiTvuTJg9LgrbZwRnP89tfDSjCe6s3pV8BCsOgkyMnTgQKBSqy3MsaR8SYci8cnEa7lUrDslBwetaILeMryGfVlB3sxYAue1Nrco1AoQtxXMidV7qPCOpkKCbDJaEHXlaJta-wIkwaQ0qR-cyWtInY2ITnK-cF0ZURe6xnZK7tAiwnyXDCcGZmNTzBSY-IIhuTXvlmtav1gP5-vHlpZ7LsKEM6UwOfWMzZQCvRBXc6kqae7EWxSE7Zt_yVaISBs3kENahzhkLr0XjMTfZE_E4eZU9XaVH_LNdEYXrLEAlB0QzkAaUfI3Vvfmws-xYuk9_]--></g></svg>