<?xml version="1.0" encoding="us-ascii" standalone="no"?><svg xmlns="http://www.w3.org/2000/svg" xmlns:xlink="http://www.w3.org/1999/xlink" contentStyleType="text/css" height="403px" preserveAspectRatio="none" style="width:482px;height:403px;background:#FFFFFF;" version="1.1" viewBox="0 0 482 403" width="482px" zoomAndPan="magnify"><defs/><g><!--cluster fitness-tracker-context--><g id="cluster_fitness-tracker-context"><rect fill="none" height="390.95" rx="2.5" ry="2.5" style="stroke:#181818;stroke-width:1.0;" width="469" x="7" y="7"/><path d="M188,7 L188,16.4883 L178,26.4883 L7,26.4883 " fill="none" style="stroke:#181818;stroke-width:1.0;"/><text fill="#000000" font-family="sans-serif" font-size="14" font-weight="bold" lengthAdjust="spacing" textLength="171" x="10" y="21.5352">fitness-tracker-context</text></g><!--entity ft--><g id="elem_ft"><rect fill="#F1F1F1" height="46.4883" rx="2.5" ry="2.5" style="stroke:#181818;stroke-width:0.5;" width="144" x="141" y="195.49"/><rect fill="#F1F1F1" height="10" style="stroke:#181818;stroke-width:0.5;" width="15" x="265" y="200.49"/><rect fill="#F1F1F1" height="2" style="stroke:#181818;stroke-width:0.5;" width="4" x="263" y="202.49"/><rect fill="#F1F1F1" height="2" style="stroke:#181818;stroke-width:0.5;" width="4" x="263" y="206.49"/><text fill="#000000" font-family="sans-serif" font-size="14" lengthAdjust="spacing" textLength="104" x="156" y="229.0252">Fitness Tracker</text></g><!--entity re--><g id="elem_re"><rect fill="#D3D3D3" height="62.9766" rx="2.5" ry="2.5" style="stroke:#181818;stroke-width:0.5;" width="212" x="107" y="318.97"/><rect fill="#D3D3D3" height="10" style="stroke:#181818;stroke-width:0.5;" width="15" x="299" y="323.97"/><rect fill="#D3D3D3" height="2" style="stroke:#181818;stroke-width:0.5;" width="4" x="297" y="325.97"/><rect fill="#D3D3D3" height="2" style="stroke:#181818;stroke-width:0.5;" width="4" x="297" y="329.97"/><text fill="#000000" font-family="sans-serif" font-size="14" font-style="italic" lengthAdjust="spacing" textLength="71" x="172.5" y="352.5052">&#171;external&#187;</text><text fill="#000000" font-family="sans-serif" font-size="14" lengthAdjust="spacing" textLength="172" x="122" y="368.9934">recommendation-engine</text></g><!--entity user--><g id="elem_user"><ellipse cx="58" cy="50.5" fill="#F1F1F1" rx="8" ry="8" style="stroke:#181818;stroke-width:0.5;"/><path d="M58,58.5 L58,85.5 M45,66.5 L71,66.5 M58,85.5 L45,100.5 M58,85.5 L71,100.5 " fill="none" style="stroke:#181818;stroke-width:0.5;"/><text fill="#000000" font-family="sans-serif" font-size="14" lengthAdjust="spacing" textLength="30" x="43" y="115.5352">user</text></g><!--entity admin--><g id="elem_admin"><ellipse cx="297" cy="50.5" fill="#F1F1F1" rx="8" ry="8" style="stroke:#181818;stroke-width:0.5;"/><path d="M297,58.5 L297,85.5 M284,66.5 L310,66.5 M297,85.5 L284,100.5 M297,85.5 L310,100.5 " fill="none" style="stroke:#181818;stroke-width:0.5;"/><text fill="#000000" font-family="sans-serif" font-size="14" lengthAdjust="spacing" textLength="43" x="275.5" y="115.5352">admin</text></g><!--link user to ft--><g id="link_user_ft"><path d="M44.66,118.61 C41.45,134.41 41.32,152.2 51,165.49 C71.61,193.79 101.9604,205.997 134.9404,212.107 " fill="none" id="user-to-ft" style="stroke:#181818;stroke-width:1.0;stroke-dasharray:7.0,7.0;"/><polygon fill="#181818" points="140.84,213.2,132.7192,207.6275,135.9237,212.2892,131.2619,215.4936,140.84,213.2" style="stroke:#181818;stroke-width:1.0;"/><text fill="#000000" font-family="sans-serif" font-size="13" lengthAdjust="spacing" textLength="197" x="52" y="162.0584">Creates and manages workouts</text></g><!--link admin to ft--><g id="link_admin_ft"><path d="M282.24,118.9 C275.68,133.89 267.34,150.99 258,165.49 C251.32,175.85 246.725,181.8534 238.845,190.6834 " fill="none" id="admin-to-ft" style="stroke:#181818;stroke-width:1.0;stroke-dasharray:7.0,7.0;"/><polygon fill="#181818" points="234.85,195.16,243.8269,191.1084,238.1792,191.4295,237.8581,185.7818,234.85,195.16" style="stroke:#181818;stroke-width:1.0;"/><text fill="#000000" font-family="sans-serif" font-size="13" lengthAdjust="spacing" textLength="161" x="268.02" y="162.0584">Manages exercise catalog</text></g><!--link ft to re--><g id="link_ft_re"><path d="M213,242.33 C213,263.53 213,289.39 213,312.86 " fill="none" id="ft-to-re" style="stroke:#181818;stroke-width:1.0;stroke-dasharray:7.0,7.0;"/><polygon fill="#181818" points="213,318.86,217,309.86,213,313.86,209,309.86,213,318.86" style="stroke:#181818;stroke-width:1.0;"/><text fill="#000000" font-family="sans-serif" font-size="13" lengthAdjust="spacing" textLength="109" x="214" y="285.5384">queries AI engine</text></g><!--SRC=[PP11IyGm48Nl-HL3FNZg7oXBOLrG1Brv4mz3Cqr3sqcTJ74NsV_kc2wwQ0xXPNZluqto67b1mHcwD2-9YNMtewEIC4vj2vyExDnXDmP9A_j3cfB0pLCCWpu8djpPkTxY15KVbIddMiNS97MNM8rKNHW_VEWLC4Drl_dXPVDNnLMkMzXx7pc03WJPkb3Iqq8mcFh34Yei8HlDn1ur9gw9GsIgu7gLNtopPf9ca-Zdo8qhZ-ynrAyUyq3-hMwjQ0C78LJAWEnXHiPW-YF9c5RD9LK8_sBF5oiTIRgO2JfKd58e4Vk0Qx_jqC3xIX8ji7-4hRqxVm40]--></g></svg>