<?xml version="1.0" encoding="us-ascii" standalone="no"?><svg xmlns="http://www.w3.org/2000/svg" xmlns:xlink="http://www.w3.org/1999/xlink" contentStyleType="text/css" height="957px" preserveAspectRatio="none" style="width:1425px;height:957px;background:#FFFFFF;" version="1.1" viewBox="0 0 1425 957" width="1425px" zoomAndPan="magnify"><defs/><g><text fill="#000000" font-family="Verdana" font-size="22" font-weight="bold" lengthAdjust="spacing" textLength="292" x="562.4702" y="37.1182">Local Deployment View</text><!--cluster Developer Machine (Host)--><g id="cluster_Developer Machine (Host)"><polygon fill="#FFFFFF" points="21,68.7373,31,58.7373,1215,58.7373,1215,930.8073,1205,940.8073,21,940.8073,21,68.7373" style="stroke:#000000;stroke-width:1.0;"/><line style="stroke:#000000;stroke-width:1.0;" x1="1205" x2="1215" y1="68.7373" y2="58.7373"/><line style="stroke:#000000;stroke-width:1.0;" x1="21" x2="1205" y1="68.7373" y2="68.7373"/><line style="stroke:#000000;stroke-width:1.0;" x1="1205" x2="1205" y1="68.7373" y2="940.8073"/><text fill="#000000" font-family="Verdana" font-size="14" font-weight="bold" lengthAdjust="spacing" textLength="206" x="511" y="85.8125">Developer Machine (Host)</text></g><!--cluster browser--><g id="cluster_browser"><polygon fill="#FFFFFF" points="504,125.7373,514,115.7373,686,115.7373,686,218.7473,676,228.7473,504,228.7473,504,125.7373" style="stroke:#000000;stroke-width:1.0;"/><line style="stroke:#000000;stroke-width:1.0;" x1="676" x2="686" y1="125.7373" y2="115.7373"/><line style="stroke:#000000;stroke-width:1.0;" x1="504" x2="676" y1="125.7373" y2="125.7373"/><line style="stroke:#000000;stroke-width:1.0;" x1="676" x2="676" y1="125.7373" y2="228.7473"/><text fill="#000000" font-family="Verdana" font-size="14" font-weight="bold" lengthAdjust="spacing" textLength="106" x="538" y="142.8125">Web Browser</text></g><!--cluster k8s--><g id="cluster_k8s"><polygon fill="#FFFFFF" points="45,295.7473,55,285.7473,1191,285.7473,1191,664.7973,1181,674.7973,45,674.7973,45,295.7473" style="stroke:#000000;stroke-width:1.0;"/><line style="stroke:#000000;stroke-width:1.0;" x1="1181" x2="1191" y1="295.7473" y2="285.7473"/><line style="stroke:#000000;stroke-width:1.0;" x1="45" x2="1181" y1="295.7473" y2="295.7473"/><line style="stroke:#000000;stroke-width:1.0;" x1="1181" x2="1181" y1="295.7473" y2="674.7973"/><text fill="#000000" font-family="Verdana" font-size="14" font-weight="bold" lengthAdjust="spacing" textLength="149" x="539.5" y="312.8225">Kubernetes Cluster</text></g><!--cluster Namespace: workout-app--><g id="cluster_Namespace: workout-app"><path d="M71.5,431.7673 L274.5,431.7673 A3.75,3.75 0 0 1 277,434.2673 L284,454.782 L1164.5,454.782 A2.5,2.5 0 0 1 1167,457.282 L1167,648.2973 A2.5,2.5 0 0 1 1164.5,650.7973 L71.5,650.7973 A2.5,2.5 0 0 1 69,648.2973 L69,434.2673 A2.5,2.5 0 0 1 71.5,431.7673 " fill="#FFFFFF" style="stroke:#000000;stroke-width:1.0;"/><line style="stroke:#000000;stroke-width:1.0;" x1="69" x2="284" y1="454.782" y2="454.782"/><text fill="#000000" font-family="Verdana" font-size="14" font-weight="bold" lengthAdjust="spacing" textLength="202" x="73" y="447.8425">Namespace: workout-app</text></g><!--cluster docker--><g id="cluster_docker"><polygon fill="#FFFFFF" points="646,725.7973,656,715.7973,964,715.7973,964,898.8073,954,908.8073,646,908.8073,646,725.7973" style="stroke:#000000;stroke-width:1.0;"/><line style="stroke:#000000;stroke-width:1.0;" x1="954" x2="964" y1="725.7973" y2="715.7973"/><line style="stroke:#000000;stroke-width:1.0;" x1="646" x2="954" y1="725.7973" y2="725.7973"/><line style="stroke:#000000;stroke-width:1.0;" x1="954" x2="954" y1="725.7973" y2="908.8073"/><text fill="#000000" font-family="Verdana" font-size="14" font-weight="bold" lengthAdjust="spacing" textLength="171" x="715.5" y="742.8725">Docker Engine (Host)</text></g><!--cluster ls--><g id="cluster_ls"><polygon fill="#FFFFFF" points="686,782.7973,696,772.7973,932,772.7973,932,866.8073,922,876.8073,686,876.8073,686,782.7973" style="stroke:#000000;stroke-width:1.0;"/><line style="stroke:#000000;stroke-width:1.0;" x1="922" x2="932" y1="782.7973" y2="772.7973"/><line style="stroke:#000000;stroke-width:1.0;" x1="686" x2="922" y1="782.7973" y2="782.7973"/><line style="stroke:#000000;stroke-width:1.0;" x1="922" x2="922" y1="782.7973" y2="876.8073"/><text fill="#000000" font-family="Verdana" font-size="14" font-weight="bold" lengthAdjust="spacing" textLength="170" x="720" y="799.8725">Container: LocalStack</text></g><!--cluster gcp--><g id="cluster_gcp"><path d="M1247.6123,441.7082 C1250.4494,436.0406 1255.4432,434.4521 1259.8224,440.0343 C1262.6645,435.1727 1268.1163,434.1239 1271.3144,439.6401 C1273.3574,434.6516 1277.0515,434.2912 1280.5555,438.1067 C1283.4333,431.7181 1288.0237,431.7023 1292.2213,436.7619 C1296.1759,432.2473 1300.0325,432.4518 1303.268,437.5852 C1307.2592,430.5695 1311.3277,431.9904 1315.9119,436.9597 C1318.6504,430.9257 1322.1146,431.28 1326.5599,435.1189 C1331.3951,430.2736 1335.2232,430.6757 1338.0634,437.1469 C1341.677,431.5794 1345.6615,432.6156 1349.2254,437.2015 C1352.2048,432.021 1356.3631,432.3791 1359.4609,437.0788 C1363.6067,432.2069 1367.5534,432.9376 1369.7139,438.9492 C1372.8746,432.9321 1378.7005,434.0769 1381.438,439.3871 C1384.9918,434.121 1390.2044,433.8607 1393.0749,440.0796 C1396.3178,435.7471 1400.503,436.0463 1403.3562,440.5338 C1410.2346,442.3296 1412.1179,448.6609 1407.06,453.7913 C1415.6213,458.4703 1415.4222,463.3801 1408.4365,469.4277 C1415.725,471.1522 1416.1922,476.4272 1411.7923,481.4219 C1418.9405,487.6716 1416.7871,493.077 1409.0148,496.5955 C1414.0306,502.5415 1413.1817,506.6359 1405.8716,509.6035 C1412.0562,514.4105 1411.7624,521.176 1403.806,523.9464 C1400.2869,529.0186 1395.846,530.2377 1391.8868,524.4285 C1389.5748,528.6087 1385.5607,529.5802 1382.6081,525.1161 C1378.8115,530.525 1374.2239,531.8356 1369.8996,525.697 C1368.321,531.3233 1363.8665,532.2478 1360.1939,527.6933 C1356.3714,533.3469 1351.5232,533.7383 1347.5315,527.8793 C1345.4532,533.075 1341.1697,533.4126 1337.5339,529.6096 C1334.9324,535.1533 1329.7542,534.5696 1327.0812,529.6812 C1322.6611,535.048 1317.7983,533.2867 1315.4433,527.5222 C1312.7035,532.297 1307.791,533.3855 1304.604,527.9991 C1300.5399,532.929 1295.7809,531.0978 1293.5487,525.9828 C1289.8447,531.1659 1285.5954,531.9359 1281.5706,526.3392 C1277.2478,531.2109 1272.8187,530.5933 1269.9348,524.7732 C1267.4248,530.5878 1262.4966,530.5245 1259.2296,525.5225 C1254.8218,529.9049 1250.2001,530.1525 1247.2036,523.9231 C1239.5061,521.9048 1238.7385,515.4709 1244.0938,510.4416 C1236.9923,507.6032 1234.4374,500.3617 1241.6199,495.2041 C1235.3232,492.6199 1233.0369,487.3914 1238.65,482.1067 C1234.5404,476.4122 1236.356,470.7103 1243.2031,468.751 C1236.0375,463.7552 1237.2894,456.9563 1245.5039,454.4316 C1239.5009,449.1757 1240.8571,444.8499 1247.6123,441.7082 " fill="#FFFFFF" style="stroke:#000000;stroke-width:1.0;"/><text fill="#000000" font-family="Verdana" font-size="14" font-weight="bold" lengthAdjust="spacing" textLength="105" x="1272.5" y="458.8425">Google Cloud</text></g><!--entity react_app--><g id="elem_react_app"><rect fill="#FFFFFF" height="40.0146" rx="2.5" ry="2.5" style="stroke:#000000;stroke-width:1.0;" width="102" x="556" y="164.7373"/><polygon fill="#FFFFFF" points="641,169.7373,641,183.7373,653,183.7373,653,175.7373,647,169.7373,641,169.7373" style="stroke:#000000;stroke-width:1.0;"/><line style="stroke:#000000;stroke-width:1.0;" x1="647" x2="647" y1="169.7373" y2="175.7373"/><line style="stroke:#000000;stroke-width:1.0;" x1="653" x2="647" y1="175.7373" y2="175.7373"/><text fill="#000000" font-family="Verdana" font-size="14" lengthAdjust="spacing" textLength="72" x="566" y="191.8125">React SPA</text></g><!--entity p_gateway--><g id="elem_p_gateway"><polygon fill="#FFFFFF" points="401.5,336.7473,411.5,326.7473,634.5,326.7473,634.5,363.762,624.5,373.762,401.5,373.762,401.5,336.7473" style="stroke:#000000;stroke-width:1.0;"/><line style="stroke:#000000;stroke-width:1.0;" x1="624.5" x2="634.5" y1="336.7473" y2="326.7473"/><line style="stroke:#000000;stroke-width:1.0;" x1="401.5" x2="624.5" y1="336.7473" y2="336.7473"/><line style="stroke:#000000;stroke-width:1.0;" x1="624.5" x2="624.5" y1="336.7473" y2="373.762"/><text fill="#000000" font-family="Verdana" font-size="14" lengthAdjust="spacing" textLength="31" x="416.5" y="360.8225">Pod:</text><text fill="#000000" font-family="Verdana" font-size="14" lengthAdjust="spacing" textLength="5" x="447.5" y="360.8225">&#160;</text><text fill="#000000" font-family="Verdana" font-size="14" lengthAdjust="spacing" textLength="47" x="452.5" y="360.8225">Spring</text><text fill="#000000" font-family="Verdana" font-size="14" lengthAdjust="spacing" textLength="5" x="499.5" y="360.8225">&#160;</text><text fill="#000000" font-family="Verdana" font-size="14" lengthAdjust="spacing" textLength="40" x="504.5" y="360.8225">Cloud</text><text fill="#000000" font-family="Verdana" font-size="14" lengthAdjust="spacing" textLength="5" x="544.5" y="360.8225">&#160;</text><text fill="#000000" font-family="Verdana" font-size="14" lengthAdjust="spacing" textLength="60" x="549.5" y="360.8225">Gateway</text></g><!--entity p_us--><g id="elem_p_us"><polygon fill="#FFFFFF" points="286.5,477.7673,296.5,467.7673,449.5,467.7673,449.5,504.782,439.5,514.782,286.5,514.782,286.5,477.7673" style="stroke:#000000;stroke-width:1.0;"/><line style="stroke:#000000;stroke-width:1.0;" x1="439.5" x2="449.5" y1="477.7673" y2="467.7673"/><line style="stroke:#000000;stroke-width:1.0;" x1="286.5" x2="439.5" y1="477.7673" y2="477.7673"/><line style="stroke:#000000;stroke-width:1.0;" x1="439.5" x2="439.5" y1="477.7673" y2="514.782"/><text fill="#000000" font-family="Verdana" font-size="14" lengthAdjust="spacing" textLength="31" x="301.5" y="501.8425">Pod:</text><text fill="#000000" font-family="Verdana" font-size="14" lengthAdjust="spacing" textLength="5" x="332.5" y="501.8425">&#160;</text><text fill="#000000" font-family="Verdana" font-size="14" lengthAdjust="spacing" textLength="31" x="337.5" y="501.8425">User</text><text fill="#000000" font-family="Verdana" font-size="14" lengthAdjust="spacing" textLength="5" x="368.5" y="501.8425">&#160;</text><text fill="#000000" font-family="Verdana" font-size="14" lengthAdjust="spacing" textLength="51" x="373.5" y="501.8425">Service</text></g><!--entity p_auth--><g id="elem_p_auth"><polygon fill="#FFFFFF" points="85,477.7673,95,467.7673,251,467.7673,251,504.782,241,514.782,85,514.782,85,477.7673" style="stroke:#000000;stroke-width:1.0;"/><line style="stroke:#000000;stroke-width:1.0;" x1="241" x2="251" y1="477.7673" y2="467.7673"/><line style="stroke:#000000;stroke-width:1.0;" x1="85" x2="241" y1="477.7673" y2="477.7673"/><line style="stroke:#000000;stroke-width:1.0;" x1="241" x2="241" y1="477.7673" y2="514.782"/><text fill="#000000" font-family="Verdana" font-size="14" lengthAdjust="spacing" textLength="31" x="100" y="501.8425">Pod:</text><text fill="#000000" font-family="Verdana" font-size="14" lengthAdjust="spacing" textLength="5" x="131" y="501.8425">&#160;</text><text fill="#000000" font-family="Verdana" font-size="14" lengthAdjust="spacing" textLength="34" x="136" y="501.8425">Auth</text><text fill="#000000" font-family="Verdana" font-size="14" lengthAdjust="spacing" textLength="5" x="170" y="501.8425">&#160;</text><text fill="#000000" font-family="Verdana" font-size="14" lengthAdjust="spacing" textLength="51" x="175" y="501.8425">Service</text></g><!--entity p_ws--><g id="elem_p_ws"><polygon fill="#FFFFFF" points="484.5,477.7673,494.5,467.7673,675.5,467.7673,675.5,504.782,665.5,514.782,484.5,514.782,484.5,477.7673" style="stroke:#000000;stroke-width:1.0;"/><line style="stroke:#000000;stroke-width:1.0;" x1="665.5" x2="675.5" y1="477.7673" y2="467.7673"/><line style="stroke:#000000;stroke-width:1.0;" x1="484.5" x2="665.5" y1="477.7673" y2="477.7673"/><line style="stroke:#000000;stroke-width:1.0;" x1="665.5" x2="665.5" y1="477.7673" y2="514.782"/><text fill="#000000" font-family="Verdana" font-size="14" lengthAdjust="spacing" textLength="31" x="499.5" y="501.8425">Pod:</text><text fill="#000000" font-family="Verdana" font-size="14" lengthAdjust="spacing" textLength="5" x="530.5" y="501.8425">&#160;</text><text fill="#000000" font-family="Verdana" font-size="14" lengthAdjust="spacing" textLength="59" x="535.5" y="501.8425">Workout</text><text fill="#000000" font-family="Verdana" font-size="14" lengthAdjust="spacing" textLength="5" x="594.5" y="501.8425">&#160;</text><text fill="#000000" font-family="Verdana" font-size="14" lengthAdjust="spacing" textLength="51" x="599.5" y="501.8425">Service</text></g><!--entity p_as--><g id="elem_p_as"><polygon fill="#FFFFFF" points="956.5,477.7673,966.5,467.7673,1151.5,467.7673,1151.5,504.782,1141.5,514.782,956.5,514.782,956.5,477.7673" style="stroke:#000000;stroke-width:1.0;"/><line style="stroke:#000000;stroke-width:1.0;" x1="1141.5" x2="1151.5" y1="477.7673" y2="467.7673"/><line style="stroke:#000000;stroke-width:1.0;" x1="956.5" x2="1141.5" y1="477.7673" y2="477.7673"/><line style="stroke:#000000;stroke-width:1.0;" x1="1141.5" x2="1141.5" y1="477.7673" y2="514.782"/><text fill="#000000" font-family="Verdana" font-size="14" lengthAdjust="spacing" textLength="31" x="971.5" y="501.8425">Pod:</text><text fill="#000000" font-family="Verdana" font-size="14" lengthAdjust="spacing" textLength="5" x="1002.5" y="501.8425">&#160;</text><text fill="#000000" font-family="Verdana" font-size="14" lengthAdjust="spacing" textLength="63" x="1007.5" y="501.8425">Analytics</text><text fill="#000000" font-family="Verdana" font-size="14" lengthAdjust="spacing" textLength="5" x="1070.5" y="501.8425">&#160;</text><text fill="#000000" font-family="Verdana" font-size="14" lengthAdjust="spacing" textLength="51" x="1075.5" y="501.8425">Service</text></g><!--entity p_ns--><g id="elem_p_ns"><polygon fill="#FFFFFF" points="710.5,477.7673,720.5,467.7673,921.5,467.7673,921.5,504.782,911.5,514.782,710.5,514.782,710.5,477.7673" style="stroke:#000000;stroke-width:1.0;"/><line style="stroke:#000000;stroke-width:1.0;" x1="911.5" x2="921.5" y1="477.7673" y2="467.7673"/><line style="stroke:#000000;stroke-width:1.0;" x1="710.5" x2="911.5" y1="477.7673" y2="477.7673"/><line style="stroke:#000000;stroke-width:1.0;" x1="911.5" x2="911.5" y1="477.7673" y2="514.782"/><text fill="#000000" font-family="Verdana" font-size="14" lengthAdjust="spacing" textLength="31" x="725.5" y="501.8425">Pod:</text><text fill="#000000" font-family="Verdana" font-size="14" lengthAdjust="spacing" textLength="5" x="756.5" y="501.8425">&#160;</text><text fill="#000000" font-family="Verdana" font-size="14" lengthAdjust="spacing" textLength="79" x="761.5" y="501.8425">Notification</text><text fill="#000000" font-family="Verdana" font-size="14" lengthAdjust="spacing" textLength="5" x="840.5" y="501.8425">&#160;</text><text fill="#000000" font-family="Verdana" font-size="14" lengthAdjust="spacing" textLength="51" x="845.5" y="501.8425">Service</text></g><!--entity db_us--><g id="elem_db_us"><path d="M358.5,598.7773 C358.5,588.7773 409,588.7773 409,588.7773 C409,588.7773 459.5,588.7773 459.5,598.7773 L459.5,624.792 C459.5,634.792 409,634.792 409,634.792 C409,634.792 358.5,634.792 358.5,624.792 L358.5,598.7773 " fill="#FFFFFF" style="stroke:#000000;stroke-width:1.0;"/><path d="M358.5,598.7773 C358.5,608.7773 409,608.7773 409,608.7773 C409,608.7773 459.5,608.7773 459.5,598.7773 " fill="none" style="stroke:#000000;stroke-width:1.0;"/><text fill="#000000" font-family="Verdana" font-size="14" lengthAdjust="spacing" textLength="81" x="368.5" y="626.8525">PostgreSQL</text></g><!--entity db_auth--><g id="elem_db_auth"><path d="M139,598.7773 C139,588.7773 168,588.7773 168,588.7773 C168,588.7773 197,588.7773 197,598.7773 L197,624.792 C197,634.792 168,634.792 168,634.792 C168,634.792 139,634.792 139,624.792 L139,598.7773 " fill="#FFFFFF" style="stroke:#000000;stroke-width:1.0;"/><path d="M139,598.7773 C139,608.7773 168,608.7773 168,608.7773 C168,608.7773 197,608.7773 197,598.7773 " fill="none" style="stroke:#000000;stroke-width:1.0;"/><text fill="#000000" font-family="Verdana" font-size="14" lengthAdjust="spacing" textLength="38" x="149" y="626.8525">Redis</text></g><!--entity db_ws--><g id="elem_db_ws"><path d="M511.5,598.7773 C511.5,588.7773 562,588.7773 562,588.7773 C562,588.7773 612.5,588.7773 612.5,598.7773 L612.5,624.792 C612.5,634.792 562,634.792 562,634.792 C562,634.792 511.5,634.792 511.5,624.792 L511.5,598.7773 " fill="#FFFFFF" style="stroke:#000000;stroke-width:1.0;"/><path d="M511.5,598.7773 C511.5,608.7773 562,608.7773 562,608.7773 C562,608.7773 612.5,608.7773 612.5,598.7773 " fill="none" style="stroke:#000000;stroke-width:1.0;"/><text fill="#000000" font-family="Verdana" font-size="14" lengthAdjust="spacing" textLength="81" x="521.5" y="626.8525">PostgreSQL</text></g><!--entity db_ns--><g id="elem_db_ns"><path d="M647.5,598.7773 C647.5,588.7773 691,588.7773 691,588.7773 C691,588.7773 734.5,588.7773 734.5,598.7773 L734.5,624.792 C734.5,634.792 691,634.792 691,634.792 C691,634.792 647.5,634.792 647.5,624.792 L647.5,598.7773 " fill="#FFFFFF" style="stroke:#000000;stroke-width:1.0;"/><path d="M647.5,598.7773 C647.5,608.7773 691,608.7773 691,608.7773 C691,608.7773 734.5,608.7773 734.5,598.7773 " fill="none" style="stroke:#000000;stroke-width:1.0;"/><text fill="#000000" font-family="Verdana" font-size="14" lengthAdjust="spacing" textLength="67" x="657.5" y="626.8525">MongoDB</text></g><!--entity ls_engine--><g id="elem_ls_engine"><rect fill="#FFFFFF" height="47.0146" rx="2.5" ry="2.5" style="stroke:#000000;stroke-width:1.0;" width="117" x="798.5" y="813.7973"/><rect fill="#FFFFFF" height="10" style="stroke:#000000;stroke-width:1.0;" width="15" x="895.5" y="818.7973"/><rect fill="#FFFFFF" height="2" style="stroke:#000000;stroke-width:1.0;" width="4" x="893.5" y="820.7973"/><rect fill="#FFFFFF" height="2" style="stroke:#000000;stroke-width:1.0;" width="4" x="893.5" y="824.7973"/><text fill="#000000" font-family="Verdana" font-size="14" lengthAdjust="spacing" textLength="77" x="813.5" y="847.8725">SNS / SQS</text></g><!--entity gemini--><g id="elem_gemini"><rect fill="#FFFFFF" height="47.0146" rx="2.5" ry="2.5" style="stroke:#000000;stroke-width:1.0;" width="140" x="1255" y="467.7673"/><rect fill="#FFFFFF" height="10" style="stroke:#000000;stroke-width:1.0;" width="15" x="1375" y="472.7673"/><rect fill="#FFFFFF" height="2" style="stroke:#000000;stroke-width:1.0;" width="4" x="1373" y="474.7673"/><rect fill="#FFFFFF" height="2" style="stroke:#000000;stroke-width:1.0;" width="4" x="1373" y="478.7673"/><text fill="#000000" font-family="Verdana" font-size="14" lengthAdjust="spacing" textLength="100" x="1270" y="501.8425">Gemini AI API</text></g><!--link browser to p_gateway--><!--link p_gateway to p_us--><!--link p_gateway to p_us--><g id="link_p_gateway_p_us"><path d="M493.23,374.2073 C465.44,399.9673 425.0103,437.4284 397.2103,463.1984 " fill="none" id="p_gateway-to-p_us-1" style="stroke:#000000;stroke-width:1.0;"/><polygon fill="#000000" points="392.81,467.2773,402.1297,464.0924,396.4769,463.8782,396.6911,458.2254,392.81,467.2773" style="stroke:#000000;stroke-width:1.0;"/><text fill="#000000" font-family="Verdana" font-size="13" lengthAdjust="spacing" textLength="34" x="466.2" y="412.8371">HTTP</text></g><!--link p_us to db_us--><!--link p_us to db_us--><g id="link_p_us_db_us"><path d="M375.91,515.1173 C383.21,536.2473 392.0371,561.7675 399.2971,582.7375 " fill="none" id="p_us-to-db_us-1" style="stroke:#000000;stroke-width:1.0;"/><polygon fill="#000000" points="401.26,588.4073,402.0955,578.5939,399.6242,583.6825,394.5357,581.2112,401.26,588.4073" style="stroke:#000000;stroke-width:1.0;"/><text fill="#000000" font-family="Verdana" font-size="13" lengthAdjust="spacing" textLength="34" x="393.17" y="560.8471">JDBC</text></g><!--link db_us to docker--><!--link react_app to p_gateway--><g id="link_react_app_p_gateway"><path d="M596.44,205.1373 C579.91,235.5073 550.8688,288.8776 533.2688,321.2076 " fill="none" id="react_app-to-p_gateway" style="stroke:#000000;stroke-width:1.0;"/><polygon fill="#000000" points="530.4,326.4773,538.2163,320.4852,532.7906,322.0859,531.19,316.6602,530.4,326.4773" style="stroke:#000000;stroke-width:1.0;"/><text fill="#000000" font-family="Verdana" font-size="13" lengthAdjust="spacing" textLength="76" x="571.47" y="266.8171">HTTP / SSE</text></g><!--link p_gateway to p_auth--><g id="link_p_gateway_p_auth"><path d="M413.73,374.1973 C368.16,386.0873 314.78,402.6073 269,423.7673 C243.46,435.5673 221.8398,449.7047 202.3998,463.8647 " fill="none" id="p_gateway-to-p_auth" style="stroke:#000000;stroke-width:1.0;"/><polygon fill="#000000" points="197.55,467.3973,207.1798,465.3316,201.5915,464.4535,202.4697,458.8652,197.55,467.3973" style="stroke:#000000;stroke-width:1.0;"/><text fill="#000000" font-family="Verdana" font-size="13" lengthAdjust="spacing" textLength="34" x="329.29" y="412.8371">HTTP</text></g><!--link p_gateway to p_ws--><g id="link_p_gateway_p_ws"><path d="M528.24,374.2073 C539.73,399.9673 555.8049,436.0281 567.3049,461.7981 " fill="none" id="p_gateway-to-p_ws" style="stroke:#000000;stroke-width:1.0;"/><polygon fill="#000000" points="569.75,467.2773,569.7351,457.4285,567.7124,462.7113,562.4295,460.6886,569.75,467.2773" style="stroke:#000000;stroke-width:1.0;"/><text fill="#000000" font-family="Verdana" font-size="13" lengthAdjust="spacing" textLength="34" x="546.29" y="412.8371">HTTP</text></g><!--link p_gateway to p_ns--><g id="link_p_gateway_p_ns"><path d="M577.8,374.2573 C611.92,387.8273 655.29,405.8173 693,423.7673 C721.28,437.2173 747.0556,451.0746 770.8656,464.4146 " fill="none" id="p_gateway-to-p_ns" style="stroke:#000000;stroke-width:1.0;"/><polygon fill="#000000" points="776.1,467.3473,770.2035,459.4586,771.738,464.9034,766.2932,466.4379,776.1,467.3473" style="stroke:#000000;stroke-width:1.0;"/><text fill="#000000" font-family="Verdana" font-size="13" lengthAdjust="spacing" textLength="77" x="675.38" y="412.8371">HTTP (SSE)</text></g><!--link p_auth to db_auth--><g id="link_p_auth_db_auth"><path d="M168,515.1173 C168,536.2473 168,561.4373 168,582.4073 " fill="none" id="p_auth-to-db_auth" style="stroke:#000000;stroke-width:1.0;"/><polygon fill="#000000" points="168,588.4073,172,579.4073,168,583.4073,164,579.4073,168,588.4073" style="stroke:#000000;stroke-width:1.0;"/><text fill="#000000" font-family="Verdana" font-size="13" lengthAdjust="spacing" textLength="34" x="169" y="560.8471">RESP</text></g><!--link p_ws to db_ws--><g id="link_p_ws_db_ws"><path d="M576.53,515.1173 C573.32,536.2473 569.4796,561.5051 566.2996,582.4751 " fill="none" id="p_ws-to-db_ws" style="stroke:#000000;stroke-width:1.0;"/><polygon fill="#000000" points="565.4,588.4073,570.7042,580.1088,566.1497,583.4638,562.7946,578.9093,565.4,588.4073" style="stroke:#000000;stroke-width:1.0;"/><text fill="#000000" font-family="Verdana" font-size="13" lengthAdjust="spacing" textLength="34" x="572.54" y="560.8471">JDBC</text></g><!--link p_ns to db_ns--><g id="link_p_ns_db_ns"><path d="M791.9,515.1173 C769.62,536.2473 741.0743,563.3094 718.9543,584.2794 " fill="none" id="p_ns-to-db_ns" style="stroke:#000000;stroke-width:1.0;"/><polygon fill="#000000" points="714.6,588.4073,723.8834,585.1183,718.2286,584.9674,718.3795,579.3125,714.6,588.4073" style="stroke:#000000;stroke-width:1.0;"/><text fill="#000000" font-family="Verdana" font-size="13" lengthAdjust="spacing" textLength="31" x="758.25" y="560.8471">Wire</text></g><!--link p_ws to ls_engine--><g id="link_p_ws_ls_engine"><path d="M626.46,515.2573 C646.46,524.1273 670.4,533.4073 693,538.7773 C704.38,541.4873 789.86,538.3773 798,546.7773 C808.52,557.6473 801.17,667.9373 804,682.7973 C813.13,730.7073 831.7538,778.4536 844.4138,807.9536 " fill="none" id="p_ws-to-ls_engine" style="stroke:#000000;stroke-width:1.0;"/><polygon fill="#000000" points="846.78,813.4673,846.9065,803.6193,844.8081,808.8725,839.5549,806.7742,846.78,813.4673" style="stroke:#000000;stroke-width:1.0;"/><text fill="#000000" font-family="Verdana" font-size="13" lengthAdjust="spacing" textLength="34" x="805" y="617.3571">HTTP</text></g><!--link p_as to ls_engine--><g id="link_p_as_ls_engine"><path d="M1040.92,515.1073 C1005.09,577.6873 908.6009,746.1802 872.9309,808.4902 " fill="none" id="p_as-to-ls_engine" style="stroke:#000000;stroke-width:1.0;"/><polygon fill="#000000" points="869.95,813.6973,877.8928,807.8738,872.4341,809.358,870.9499,803.8993,869.95,813.6973" style="stroke:#000000;stroke-width:1.0;"/><text fill="#000000" font-family="Verdana" font-size="13" lengthAdjust="spacing" textLength="34" x="999.5" y="617.3571">HTTP</text></g><!--link p_ns to ls_engine--><g id="link_p_ns_ls_engine"><path d="M825.65,515.1873 C833.26,534.4473 843.34,562.8973 848,588.7773 C862.72,670.4573 860.64,763.6738 858.59,807.5538 " fill="none" id="p_ns-to-ls_engine" style="stroke:#000000;stroke-width:1.0;"/><polygon fill="#000000" points="858.31,813.5473,862.7256,804.7438,858.5433,808.5528,854.7344,804.3704,858.31,813.5473" style="stroke:#000000;stroke-width:1.0;"/><text fill="#000000" font-family="Verdana" font-size="13" lengthAdjust="spacing" textLength="34" x="859.18" y="617.3571">HTTP</text></g><!--link p_as to gemini--><g id="link_p_as_gemini"><path d="M1151.84,491.2673 C1185.8,491.2673 1217.19,491.2673 1248.51,491.2673 " fill="none" id="p_as-to-gemini" style="stroke:#000000;stroke-width:1.0;"/><polygon fill="#000000" points="1254.51,491.2673,1245.51,487.2673,1249.51,491.2673,1245.51,495.2673,1254.51,491.2673" style="stroke:#000000;stroke-width:1.0;"/><text fill="#000000" font-family="Verdana" font-size="13" lengthAdjust="spacing" textLength="43" x="1181.75" y="485.3371">HTTPS</text></g><!--reverse link react_app to p_ns--><g id="link_react_app_p_ns"><path d="M663.7383,206.2427 C698.3883,221.0327 737.07,242.8573 764,277.7473 C808.44,335.3373 815.49,425.6873 816.22,467.5673 " fill="none" id="react_app-backto-p_ns" style="stroke:#000000;stroke-width:2.0;"/><polygon fill="#000000" points="658.22,203.8873,664.9272,211.0993,662.8186,205.8502,668.0678,203.7416,658.22,203.8873" style="stroke:#000000;stroke-width:2.0;"/><text fill="#000000" font-family="Verdana" font-size="13" lengthAdjust="spacing" textLength="126" x="806.37" y="355.8271">SSE (via Gateway)</text></g><!--SRC=[VLLHRzem47xFhxZnKdX0coPDcf0sYH9esIYbX9M7ggfCSWqMmOvifncQ-jztTX88eP27OEU- -_pv_9tvPDQuHKWJneMdDroaJB4jA2Os6bFuziKpt2G84nco17nC4xdReZ3mo37tF24ZX9QFRvZ851NSiN3D1KBxLchJQS4_pmDw2jWILt2jPAvHjO1fM1LZ0a7vC6NuAmiDjEPeVu9Pto6LdRsmD7N8zphfxso5Ig113OCaqwRatdpNDTu2EfDH3u9KSH4JLcOHt323ETkvZFGbBcRxhFqWPU66nSGmPLlKDCCUv59jP6Qw9AfLMya-LrIjcDjwtQi8LG_64LMCcnrqVy90AWHVRgdUTjeNBDbfhktu3hLcCQaxOgjf_sEh5Q1wuo6McZDz3jpFpBe1PlJf77nPxAUHaP-djy8D3tLpZRCPKqc7IsKnN8f6aj1Ueu8-Csp5D9sgoS8DHX1nXQ59Th0Yg-L0jkMA3aPHPOzNZCfCkwesiSBWOUAMYLRDQXsWSuouhb0dPRf4cP-Zl9CYblvrXHC7tFkfYtr9crGm576zUsnc4MXQUI258GTPSxdE30nPr2Kakk76K6vJAMpBFWNJ03v3y10y5yWNTEkT22DfeUkFresKCNM_wnP77uTfoL_ZlS4j5npwO-ZFneuxTbyiqHLqkrqOtSy7GnyUX_F5UD2VK6EFfqDeJ-aaoGnrNyEhL92mdVMYfbhoX1gdOqcywhxeFgrvH2tr7CbSKDySEdS_-W13PszV9v725kvz6dFLhpQncFT7e_40HfFxPU0KKM0eZDfv-miAkarHq8FRnM9c2nyCRKPvwO2HrPvrNNXDS9dwOTIQz58ylvWjgYYqILN7ogewZcue8QZLg4khYjKhHNc__Ek1LogenKf5ys5WryoFyl9QdZYAE2LBQcwhONy3agpI3eGwEBnpJBnty66hx69KN8ZQi_nBVnzqhm4J4SmolIu95O_NXd8ALvS9GSdtPDOyt0XI_kFhSvOIx626dZrpQBznLfrwn_iF]--></g></svg>