<?xml version="1.0" encoding="us-ascii" standalone="no"?><svg xmlns="http://www.w3.org/2000/svg" xmlns:xlink="http://www.w3.org/1999/xlink" contentStyleType="text/css" height="638px" preserveAspectRatio="none" style="width:705px;height:638px;background:#FFFFFF;" version="1.1" viewBox="0 0 705 638" width="705px" zoomAndPan="magnify"><defs/><g><!--cluster notification-service Boundary--><g id="cluster_notification-service Boundary"><path d="M28,139.03 L262,139.03 A3.75,3.75 0 0 1 264.5,141.53 L271.5,162.0446 L696,162.0446 A2.5,2.5 0 0 1 698.5,164.5446 L698.5,525.58 A2.5,2.5 0 0 1 696,528.08 L28,528.08 A2.5,2.5 0 0 1 25.5,525.58 L25.5,141.53 A2.5,2.5 0 0 1 28,139.03 " fill="#FFFFFF" style="stroke:#000000;stroke-width:1.0;"/><line style="stroke:#000000;stroke-width:1.0;" x1="25.5" x2="271.5" y1="162.0446" y2="162.0446"/><text fill="#000000" font-family="Verdana" font-size="14" font-weight="bold" lengthAdjust="spacing" textLength="233" x="29.5" y="155.1052">notification-service Boundary</text></g><!--cluster TopRow--><g id="cluster_TopRow"><path d="M60,191.03 L207.25,191.03 A3.75,3.75 0 0 1 209.75,193.53 L216.75,201.03 L664,201.03 A2.5,2.5 0 0 1 666.5,203.53 L666.5,283.55 A2.5,2.5 0 0 1 664,286.05 L60,286.05 A2.5,2.5 0 0 1 57.5,283.55 L57.5,193.53 A2.5,2.5 0 0 1 60,191.03 " fill="none" style="stroke:none;stroke-width:1.0;"/><line style="stroke:none;stroke-width:1.0;" x1="57.5" x2="216.75" y1="201.03" y2="201.03"/></g><!--entity service--><g id="elem_service"><rect fill="#FFFFFF" height="47.0146" rx="2.5" ry="2.5" style="stroke:#000000;stroke-width:1.0;" width="170" x="189.5" y="357.05"/><rect fill="#FFFFFF" height="10" style="stroke:#000000;stroke-width:1.0;" width="15" x="339.5" y="362.05"/><rect fill="#FFFFFF" height="2" style="stroke:#000000;stroke-width:1.0;" width="4" x="337.5" y="364.05"/><rect fill="#FFFFFF" height="2" style="stroke:#000000;stroke-width:1.0;" width="4" x="337.5" y="368.05"/><text fill="#000000" font-family="Verdana" font-size="14" lengthAdjust="spacing" textLength="130" x="204.5" y="391.1252">NotificationService</text></g><!--entity repo--><g id="elem_repo"><rect fill="#FFFFFF" height="47.0146" rx="2.5" ry="2.5" style="stroke:#000000;stroke-width:1.0;" width="193" x="178" y="465.06"/><rect fill="#FFFFFF" height="10" style="stroke:#000000;stroke-width:1.0;" width="15" x="351" y="470.06"/><rect fill="#FFFFFF" height="2" style="stroke:#000000;stroke-width:1.0;" width="4" x="349" y="472.06"/><rect fill="#FFFFFF" height="2" style="stroke:#000000;stroke-width:1.0;" width="4" x="349" y="476.06"/><text fill="#000000" font-family="Verdana" font-size="14" lengthAdjust="spacing" textLength="153" x="193" y="499.1352">NotificationRepository</text></g><!--entity listener--><g id="elem_listener"><rect fill="#FFFFFF" height="47.0146" rx="2.5" ry="2.5" style="stroke:#000000;stroke-width:1.0;" width="146" x="100.5" y="215.03"/><rect fill="#FFFFFF" height="10" style="stroke:#000000;stroke-width:1.0;" width="15" x="226.5" y="220.03"/><rect fill="#FFFFFF" height="2" style="stroke:#000000;stroke-width:1.0;" width="4" x="224.5" y="222.03"/><rect fill="#FFFFFF" height="2" style="stroke:#000000;stroke-width:1.0;" width="4" x="224.5" y="226.03"/><text fill="#000000" font-family="Verdana" font-size="14" lengthAdjust="spacing" textLength="106" x="115.5" y="249.1052">Queue Listener</text></g><!--entity rest--><g id="elem_rest"><rect fill="#FFFFFF" height="47.0146" rx="2.5" ry="2.5" style="stroke:#000000;stroke-width:1.0;" width="188" x="281.5" y="215.03"/><rect fill="#FFFFFF" height="10" style="stroke:#000000;stroke-width:1.0;" width="15" x="449.5" y="220.03"/><rect fill="#FFFFFF" height="2" style="stroke:#000000;stroke-width:1.0;" width="4" x="447.5" y="222.03"/><rect fill="#FFFFFF" height="2" style="stroke:#000000;stroke-width:1.0;" width="4" x="447.5" y="226.03"/><text fill="#000000" font-family="Verdana" font-size="14" lengthAdjust="spacing" textLength="148" x="296.5" y="249.1052">NotificationController</text></g><!--entity sse--><g id="elem_sse"><rect fill="#FFFFFF" height="47.0146" rx="2.5" ry="2.5" style="stroke:#000000;stroke-width:1.0;" width="138" x="504.5" y="215.03"/><rect fill="#FFFFFF" height="10" style="stroke:#000000;stroke-width:1.0;" width="15" x="622.5" y="220.03"/><rect fill="#FFFFFF" height="2" style="stroke:#000000;stroke-width:1.0;" width="4" x="620.5" y="222.03"/><rect fill="#FFFFFF" height="2" style="stroke:#000000;stroke-width:1.0;" width="4" x="620.5" y="226.03"/><text fill="#000000" font-family="Verdana" font-size="14" lengthAdjust="spacing" textLength="98" x="519.5" y="249.1052">SSEController</text></g><!--entity nq--><g id="elem_nq"><path d="M16,30.51 L155,30.51 C160,30.51 160,44.0173 160,44.0173 C160,44.0173 160,57.5246 155,57.5246 L16,57.5246 C11,57.5246 11,44.0173 11,44.0173 C11,44.0173 11,30.51 16,30.51 " fill="#FFFFFF" style="stroke:#000000;stroke-width:1.0;"/><path d="M155,30.51 C150,30.51 150,44.0173 150,44.0173 C150,57.5246 155,57.5246 155,57.5246 " fill="none" style="stroke:#000000;stroke-width:1.0;"/><text fill="#000000" font-family="Verdana" font-size="14" lengthAdjust="spacing" textLength="129" x="16" y="49.5852">Notification Queue</text></g><!--entity cq--><g id="elem_cq"><path d="M200,30.51 L317,30.51 C322,30.51 322,44.0173 322,44.0173 C322,44.0173 322,57.5246 317,57.5246 L200,57.5246 C195,57.5246 195,44.0173 195,44.0173 C195,44.0173 195,30.51 200,30.51 " fill="#FFFFFF" style="stroke:#000000;stroke-width:1.0;"/><path d="M317,30.51 C312,30.51 312,44.0173 312,44.0173 C312,57.5246 317,57.5246 317,57.5246 " fill="none" style="stroke:#000000;stroke-width:1.0;"/><text fill="#000000" font-family="Verdana" font-size="14" lengthAdjust="spacing" textLength="107" x="200" y="49.5852">Cleanup Queue</text></g><!--entity client--><g id="elem_client"><rect fill="#FFFFFF" height="64.0293" rx="2.5" ry="2.5" style="stroke:#000000;stroke-width:1.0;" width="147" x="415" y="12"/><rect fill="#FFFFFF" height="10" style="stroke:#000000;stroke-width:1.0;" width="15" x="542" y="17"/><rect fill="#FFFFFF" height="2" style="stroke:#000000;stroke-width:1.0;" width="4" x="540" y="19"/><rect fill="#FFFFFF" height="2" style="stroke:#000000;stroke-width:1.0;" width="4" x="540" y="23"/><text fill="#000000" font-family="Verdana" font-size="14" font-style="italic" lengthAdjust="spacing" textLength="75" x="446" y="46.0752">&#171;external&#187;</text><text fill="#000000" font-family="Verdana" font-size="14" lengthAdjust="spacing" textLength="107" x="430" y="63.0898">React Frontend</text></g><!--entity db--><g id="elem_db"><path d="M231,585.08 C231,575.08 274.5,575.08 274.5,575.08 C274.5,575.08 318,575.08 318,585.08 L318,611.0946 C318,621.0946 274.5,621.0946 274.5,621.0946 C274.5,621.0946 231,621.0946 231,611.0946 L231,585.08 " fill="#FFFFFF" style="stroke:#000000;stroke-width:1.0;"/><path d="M231,585.08 C231,595.08 274.5,595.08 274.5,595.08 C274.5,595.08 318,595.08 318,585.08 " fill="none" style="stroke:#000000;stroke-width:1.0;"/><text fill="#000000" font-family="Verdana" font-size="14" lengthAdjust="spacing" textLength="67" x="241" y="613.1552">MongoDB</text></g><!--link nq to listener--><g id="link_nq_listener"><path d="M91.41,57.95 C106.09,90.07 141.8858,168.373 160.5158,209.133 " fill="none" id="nq-to-listener" style="stroke:#000000;stroke-width:1.0;"/><polygon fill="#000000" points="163.01,214.59,162.9067,204.7417,160.9315,210.0425,155.6307,208.0673,163.01,214.59" style="stroke:#000000;stroke-width:1.0;"/></g><!--link cq to listener--><g id="link_cq_listener"><path d="M252.79,57.95 C238.61,90.07 204.0538,168.3414 186.0538,209.1014 " fill="none" id="cq-to-listener" style="stroke:#000000;stroke-width:1.0;"/><polygon fill="#000000" points="183.63,214.59,190.9248,207.9729,185.6499,210.0161,183.6067,204.7412,183.63,214.59" style="stroke:#000000;stroke-width:1.0;"/></g><!--link client to rest--><g id="link_client_rest"><path d="M467.053,81.5546 C444.293,120.3346 412.1566,175.0851 391.9766,209.4751 " fill="none" id="client-rest" style="stroke:#000000;stroke-width:1.0;"/><polygon fill="#000000" points="470.09,76.38,462.0848,82.1173,467.5592,80.6922,468.9843,86.1666,470.09,76.38" style="stroke:#000000;stroke-width:1.0;"/><polygon fill="#000000" points="388.94,214.65,396.9448,208.9121,391.4705,210.3376,390.045,204.8633,388.94,214.65" style="stroke:#000000;stroke-width:1.0;"/><text fill="#000000" font-family="Verdana" font-size="13" lengthAdjust="spacing" textLength="46" x="452.95" y="120.0998">[REST]</text></g><!--reverse link client to sse--><g id="link_client_sse"><path d="M504.7732,81.8689 C521.8932,120.6489 548.21,180.26 563.39,214.65 " fill="none" id="client-backto-sse" style="stroke:#000000;stroke-width:2.0;"/><polygon fill="#000000" points="502.35,76.38,502.3255,86.2288,504.3693,80.9541,509.644,82.9979,502.35,76.38" style="stroke:#000000;stroke-width:2.0;"/><text fill="#000000" font-family="Verdana" font-size="13" lengthAdjust="spacing" textLength="92" x="521.89" y="120.0998">[SSE Stream]</text></g><!--link listener to service--><g id="link_listener_service"><path d="M189.95,262.35 C208.73,288.38 235.7716,325.8527 254.5416,351.8927 " fill="none" id="listener-to-service" style="stroke:#000000;stroke-width:1.0;"/><polygon fill="#000000" points="258.05,356.76,256.0322,347.1201,255.1263,352.7039,249.5425,351.798,258.05,356.76" style="stroke:#000000;stroke-width:1.0;"/></g><!--link rest to service--><g id="link_rest_service"><path d="M359.05,262.35 C340.27,288.38 313.2284,325.8527 294.4584,351.8927 " fill="none" id="rest-to-service" style="stroke:#000000;stroke-width:1.0;"/><polygon fill="#000000" points="290.95,356.76,299.4575,351.798,293.8737,352.7039,292.9678,347.1201,290.95,356.76" style="stroke:#000000;stroke-width:1.0;"/></g><!--link service to sse--><g id="link_service_sse"><path d="M352.71,356.62 C393.7,343.21 444.07,324.5 486.5,302.05 C507.54,290.91 524.5559,278.9662 541.0459,266.1262 " fill="none" id="service-to-sse" style="stroke:#000000;stroke-width:1.0;"/><polygon fill="#000000" points="545.78,262.44,536.2214,264.8133,541.8349,265.5119,541.1363,271.1254,545.78,262.44" style="stroke:#000000;stroke-width:1.0;"/><text fill="#000000" font-family="Verdana" font-size="13" lengthAdjust="spacing" textLength="31" x="471.2" y="324.1198">Push</text></g><!--link service to repo--><g id="link_service_repo"><path d="M263.46,404.56 C260.68,422.34 259.7494,440.9126 262.5394,458.6826 " fill="none" id="service-to-repo" style="stroke:#000000;stroke-width:1.0;"/><polygon fill="#000000" points="263.47,464.61,266.0256,455.0985,262.6945,459.6705,258.1225,456.3393,263.47,464.61" style="stroke:#000000;stroke-width:1.0;"/></g><!--link service to repo--><!--link repo to db--><g id="link_repo_db"><path d="M274.5,512.37 C274.5,530.74 274.5,556.42 274.5,574.68 " fill="none" id="repo-db" style="stroke:#000000;stroke-width:1.0;"/></g><!--link TopRow to service--><!--SRC=[VLDDZvim4BtxLqovz5AadbTPf6wQd6Yo1QIsYd8mC4ciE6DYctoqslzUsy0cJRFBmU1vCtv-RuOFTeCxX4PoGOnzX68Z36n4ZGOS0e88DJIysl8rWXJaufngaBn4QPZP2cguvhiXPJII_AnQcoJmXu5xdfIkKO-LL1givcHSEfBjC5Uprggb-Zu-LMJVHdBn6-4pU_6tZkCO9Z-BIJRxaa8nV_O1jc-nHOXcoegLgBWLYk2xZqN03T1-I1XBvDGsLrYrPvNQDOeS7qGPyih2L3jEfBfBaC93en6UB6hYCaaO6roAw8enDgWFea9dXDF9zJdgZGbBx_TGYITXh87vBFq5AoUxy_8J20j78IMKlY47OKGfCTI_KXQgoTGnWl_yzyz5oo9eXDJHe6liqckH_UPU-hLtOwTVAodxCet6tYl9yybDfZ7TPLykkj-Wo3klkghk-xtq31jbX5NwtD-eKNuSQcvvoOrpvPkYjVhw55fMbyEWJDFvZpnC2EtTAxauKDtk-pRxeDSB3x389dcnV4KU7xqy7tUw8RSQ-Mx9s712E6vG4awu3WoZ4MBXbEYvDPk8_OC4MNvnkrv56deCAt42gs2BsFWHEQ2spXd9kc60UE7-unffMQiZtQEzmJt7Nm00]--></g></svg>