<?xml version="1.0" encoding="us-ascii" standalone="no"?><svg xmlns="http://www.w3.org/2000/svg" xmlns:xlink="http://www.w3.org/1999/xlink" contentStyleType="text/css" height="549px" preserveAspectRatio="none" style="width:283px;height:549px;background:#FFFFFF;" version="1.1" viewBox="0 0 283 549" width="283px" zoomAndPan="magnify"><defs/><g><text fill="#888888" font-family="sans-serif" font-size="10" lengthAdjust="spacing" textLength="88" x="181" y="9.668">Technical Context</text><!--cluster client--><g id="cluster_client"><polygon fill="none" points="37,28.7773,47,18.7773,245,18.7773,245,127.7473,235,137.7473,37,137.7473,37,28.7773" style="stroke:#181818;stroke-width:1.0;"/><line style="stroke:#181818;stroke-width:1.0;" x1="235" x2="245" y1="28.7773" y2="18.7773"/><line style="stroke:#181818;stroke-width:1.0;" x1="37" x2="235" y1="28.7773" y2="28.7773"/><line style="stroke:#181818;stroke-width:1.0;" x1="235" x2="235" y1="28.7773" y2="137.7473"/><text fill="#000000" font-family="sans-serif" font-size="14" font-weight="bold" lengthAdjust="spacing" textLength="95" x="89.5" y="45.3125">Client Device</text></g><!--cluster host--><g id="cluster_host"><polygon fill="none" points="16,196.7473,26,186.7473,266,186.7473,266,346.2373,256,356.2373,16,356.2373,16,196.7473" style="stroke:#181818;stroke-width:1.0;"/><line style="stroke:#181818;stroke-width:1.0;" x1="256" x2="266" y1="196.7473" y2="186.7473"/><line style="stroke:#181818;stroke-width:1.0;" x1="16" x2="256" y1="196.7473" y2="196.7473"/><line style="stroke:#181818;stroke-width:1.0;" x1="256" x2="256" y1="196.7473" y2="356.2373"/><text fill="#000000" font-family="sans-serif" font-size="14" font-weight="bold" lengthAdjust="spacing" textLength="86" x="94" y="213.2825">Local Server</text></g><!--cluster fitness-tracker System--><g id="cluster_fitness-tracker System"><path d="M42.5,234.7473 L209.5,234.7473 A3.75,3.75 0 0 1 212,237.2473 L219,257.2356 L239.5,257.2356 A2.5,2.5 0 0 1 242,259.7356 L242,329.7373 A2.5,2.5 0 0 1 239.5,332.2373 L42.5,332.2373 A2.5,2.5 0 0 1 40,329.7373 L40,237.2473 A2.5,2.5 0 0 1 42.5,234.7473 " fill="none" style="stroke:#000000;stroke-width:1.5;"/><line style="stroke:#000000;stroke-width:1.5;" x1="40" x2="219" y1="257.2356" y2="257.2356"/><text fill="#000000" font-family="sans-serif" font-size="14" font-weight="bold" lengthAdjust="spacing" textLength="166" x="44" y="250.2825">fitness-tracker System</text></g><!--cluster gemini--><g id="cluster_gemini"><path d="M64.5526,429.2559 C67.8184,422.6613 74.2049,422.4454 77.7181,429.0084 C80.1648,423.7163 85.2125,422.8665 89.0848,427.3511 C92.4289,419.5701 99.58,419.6549 103.4568,426.8396 C106.0569,419.5461 111.3031,417.8686 116.6013,424.2453 C120.0111,417.2533 125.1733,418.0336 129.1524,423.6799 C132.251,416.2215 138.0582,415.7975 143.0833,421.6661 C147.8976,416.7342 153.0169,418.1199 155.4313,424.3266 C159.0373,418.5142 163.77,419.288 167.5535,424.1247 C172.7707,418.0657 177.272,419.9305 180.8886,425.8993 C185.5414,418.9149 190.0227,419.0173 194.2378,426.3086 C198.8589,421.2123 205.33,420.3649 208.2404,428.166 C217.5005,421.6368 223.1181,425.7476 226,435.2373 C226.938,434.3472 227.8093,434.3383 228.2949,435.6986 C235.4369,440.3229 236.5626,445.3119 228.9362,450.5729 C236.1817,452.5749 238.9373,458.7441 232.3741,464.2238 C240.586,466.9528 241.4444,471.7036 236.654,478.3672 C242.0426,484.005 240.8717,488.895 233.4768,491.4215 C239.1234,497.4301 237.5717,502.8484 230.0278,505.6625 C235.0812,517.4465 232.4386,524.1067 219,525.7273 C220.0533,525.402 220.6972,526.0487 220.5567,527.0886 C217.4135,534.9376 210.2324,534.2029 206.0917,528.1246 C202.8904,535.1072 198.4648,535.1306 193.5447,529.8886 C190.8606,536.2054 186.4786,536.9049 181.944,531.7619 C179.4906,538.2946 173.7448,539.2224 169.2088,534.0224 C165.1054,540.869 160.1084,541.1963 154.6296,535.639 C151.6392,541.8772 147.238,542.661 142.6883,537.2353 C138.0942,542.5425 131.1262,542.182 128.5054,534.9952 C123.0165,540.4899 118.7636,539.45 115.0872,532.965 C111.2366,538.3402 105.8806,539.3768 102.4241,532.5559 C97.6119,537.9549 93.729,537.186 91.0765,530.5239 C86.6696,535.691 80.8575,536.4084 77.4441,529.4105 C64.5071,536.9584 58.3325,532.4656 56,518.7273 C56.2147,518.3699 56.5484,518.4264 56.7074,518.7826 C49.7029,514.3479 50.121,508.9064 57.1291,504.8974 C51.0183,501.0893 50.6105,496.4197 57.2695,492.7592 C49.3083,489.0863 48.5225,484.7062 54.9774,478.6855 C48.2495,472.8982 50.2634,468.6617 56.8943,464.7063 C49.8032,460.536 48.8399,454.7772 56.4506,450.1585 C47.4399,440.1261 51.5444,432.155 63,428.2373 C64.0352,427.7465 64.5266,428.2083 64.5526,429.2559 " fill="#FFFFFF" style="stroke:#181818;stroke-width:1.0;"/><text fill="#000000" font-family="sans-serif" font-size="14" font-style="italic" lengthAdjust="spacing" textLength="71" x="105.5" y="446.7725">&#171;external&#187;</text><text fill="#000000" font-family="sans-serif" font-size="14" font-weight="bold" lengthAdjust="spacing" textLength="145" x="68.5" y="463.2608">Google API (Gemini)</text></g><!--entity web--><g id="elem_web"><rect fill="#F1F1F1" height="62.9766" rx="2.5" ry="2.5" style="stroke:#181818;stroke-width:0.5;" width="177" x="52.5" y="58.7773"/><rect fill="#F1F1F1" height="10" style="stroke:#181818;stroke-width:0.5;" width="15" x="209.5" y="63.7773"/><rect fill="#F1F1F1" height="2" style="stroke:#181818;stroke-width:0.5;" width="4" x="207.5" y="65.7773"/><rect fill="#F1F1F1" height="2" style="stroke:#181818;stroke-width:0.5;" width="4" x="207.5" y="69.7773"/><text fill="#000000" font-family="sans-serif" font-size="14" font-style="italic" lengthAdjust="spacing" textLength="40" x="116" y="92.3125">&#171;SPA&#187;</text><text fill="#000000" font-family="sans-serif" font-size="14" lengthAdjust="spacing" textLength="137" x="67.5" y="108.8008">fitness-tracker::web</text></g><!--entity api--><g id="elem_api"><rect fill="#F1F1F1" height="46.4883" rx="2.5" ry="2.5" style="stroke:#181818;stroke-width:0.5;" width="170" x="56" y="269.7473"/><rect fill="#F1F1F1" height="10" style="stroke:#181818;stroke-width:0.5;" width="15" x="206" y="274.7473"/><rect fill="#F1F1F1" height="2" style="stroke:#181818;stroke-width:0.5;" width="4" x="204" y="276.7473"/><rect fill="#F1F1F1" height="2" style="stroke:#181818;stroke-width:0.5;" width="4" x="204" y="280.7473"/><text fill="#000000" font-family="sans-serif" font-size="14" lengthAdjust="spacing" textLength="130" x="71" y="303.2825">fitness-tracker::api</text></g><!--entity model--><g id="elem_model"><rect fill="#D3D3D3" height="46.4883" rx="2.5" ry="2.5" style="stroke:#181818;stroke-width:0.5;" width="154" x="64" y="471.2373"/><rect fill="#D3D3D3" height="10" style="stroke:#181818;stroke-width:0.5;" width="15" x="198" y="476.2373"/><rect fill="#D3D3D3" height="2" style="stroke:#181818;stroke-width:0.5;" width="4" x="196" y="478.2373"/><rect fill="#D3D3D3" height="2" style="stroke:#181818;stroke-width:0.5;" width="4" x="196" y="482.2373"/><text fill="#000000" font-family="sans-serif" font-size="14" lengthAdjust="spacing" textLength="114" x="79" y="504.7725">Gemini 1.5 Flash</text></g><!--link web to api--><g id="link_web_api"><path d="M141,122.1873 C141,162.8773 141,233.4373 141,269.4473 " fill="none" id="web-api" style="stroke:#181818;stroke-width:1.0;"/><text fill="#000000" font-family="sans-serif" font-size="13" lengthAdjust="spacing" textLength="79" x="142" y="167.3157">HTTP / JSON</text></g><!--link api to model--><g id="link_api_model"><path d="M141,316.4873 C141,354.8073 141,432.2973 141,470.7673 " fill="none" id="api-model" style="stroke:#181818;stroke-width:1.0;"/><text fill="#000000" font-family="sans-serif" font-size="13" lengthAdjust="spacing" textLength="40" x="166" y="385.8057">HTTPS</text><text fill="#000000" font-family="sans-serif" font-size="13" lengthAdjust="spacing" textLength="88" x="142" y="401.1163">(API Key Auth)</text></g><!--SRC=[XP1DImCn48Rl-HL3Uh0zL57mKfQ5Kh5-52sauCLBJAUReTbaITBg8ltl9hkj83sOGmPctdbcvWrRietqiWRbwiPPj574rY3iQdF3c4QvHWyhLDgIaWPcpaRyYenPjqRWCqEf0-vmJmevo02gptmpIE-N2Nn3qM88u-YbsgAVJ3xnesj84Of2BATboGudxiBbOGBz7dsdqYwSe4q2o0hFa23Q4B7cHzb_ysL37Jd5Jd_8qoz0DAXeGmhcM9Cbc1ctMpELV-1pvwhapNJv2CE-FkeOLQyjYcGDUYjDMSBWJLF4SoEEtElBMxWtCkWEKAUh3GmMLEauzxBjT_bZkqKLoTd0ic7ZSTuR9i0VLgibNC6JU7tXBETIgQSTY-BT3lF2pzZ2T1VrYBCV]--></g></svg>