<?xml version="1.0" encoding="us-ascii" standalone="no"?><svg xmlns="http://www.w3.org/2000/svg" xmlns:xlink="http://www.w3.org/1999/xlink" contentStyleType="text/css" height="722px" preserveAspectRatio="none" style="width:518px;height:722px;background:#FFFFFF;" version="1.1" viewBox="0 0 518 722" width="518px" zoomAndPan="magnify"><defs/><g><!--cluster workout-management-service Boundary--><g id="cluster_workout-management-service Boundary"><path d="M13.5,139.03 L332.5,139.03 A3.75,3.75 0 0 1 335,141.53 L342,162.0446 L508.5,162.0446 A2.5,2.5 0 0 1 511,164.5446 L511,583.57 A2.5,2.5 0 0 1 508.5,586.07 L13.5,586.07 A2.5,2.5 0 0 1 11,583.57 L11,141.53 A2.5,2.5 0 0 1 13.5,139.03 " fill="#FFFFFF" style="stroke:#000000;stroke-width:1.0;"/><line style="stroke:#000000;stroke-width:1.0;" x1="11" x2="342" y1="162.0446" y2="162.0446"/><text fill="#000000" font-family="Verdana" font-size="14" font-weight="bold" lengthAdjust="spacing" textLength="318" x="15" y="155.1052">workout-management-service Boundary</text></g><!--cluster TopRow--><g id="cluster_TopRow"><path d="M121.5,191.03 L175.25,191.03 A3.75,3.75 0 0 1 177.75,193.53 L184.75,201.03 L351.5,201.03 A2.5,2.5 0 0 1 354,203.53 L354,283.54 A2.5,2.5 0 0 1 351.5,286.04 L121.5,286.04 A2.5,2.5 0 0 1 119,283.54 L119,193.53 A2.5,2.5 0 0 1 121.5,191.03 " fill="none" style="stroke:none;stroke-width:1.0;"/><line style="stroke:none;stroke-width:1.0;" x1="119" x2="184.75" y1="201.03" y2="201.03"/></g><!--cluster BottomRow--><g id="cluster_BottomRow"><path d="M45.5,459.06 L149.5,459.06 A3.75,3.75 0 0 1 152,461.56 L159,469.06 L476.5,469.06 A2.5,2.5 0 0 1 479,471.56 L479,551.57 A2.5,2.5 0 0 1 476.5,554.07 L45.5,554.07 A2.5,2.5 0 0 1 43,551.57 L43,461.56 A2.5,2.5 0 0 1 45.5,459.06 " fill="none" style="stroke:none;stroke-width:1.0;"/><line style="stroke:none;stroke-width:1.0;" x1="43" x2="159" y1="469.06" y2="469.06"/></g><!--entity service--><g id="elem_service"><rect fill="#FFFFFF" height="47.0146" rx="2.5" ry="2.5" style="stroke:#000000;stroke-width:1.0;" width="150" x="98" y="341.04"/><rect fill="#FFFFFF" height="10" style="stroke:#000000;stroke-width:1.0;" width="15" x="228" y="346.04"/><rect fill="#FFFFFF" height="2" style="stroke:#000000;stroke-width:1.0;" width="4" x="226" y="348.04"/><rect fill="#FFFFFF" height="2" style="stroke:#000000;stroke-width:1.0;" width="4" x="226" y="352.04"/><text fill="#000000" font-family="Verdana" font-size="14" lengthAdjust="spacing" textLength="110" x="113" y="375.1152">WorkoutService</text></g><!--entity rest--><g id="elem_rest"><rect fill="#FFFFFF" height="47.0146" rx="2.5" ry="2.5" style="stroke:#000000;stroke-width:1.0;" width="168" x="162" y="215.03"/><rect fill="#FFFFFF" height="10" style="stroke:#000000;stroke-width:1.0;" width="15" x="310" y="220.03"/><rect fill="#FFFFFF" height="2" style="stroke:#000000;stroke-width:1.0;" width="4" x="308" y="222.03"/><rect fill="#FFFFFF" height="2" style="stroke:#000000;stroke-width:1.0;" width="4" x="308" y="226.03"/><text fill="#000000" font-family="Verdana" font-size="14" lengthAdjust="spacing" textLength="128" x="177" y="249.1052">WorkoutController</text></g><!--entity repo--><g id="elem_repo"><rect fill="#FFFFFF" height="47.0146" rx="2.5" ry="2.5" style="stroke:#000000;stroke-width:1.0;" width="173" x="86.5" y="483.06"/><rect fill="#FFFFFF" height="10" style="stroke:#000000;stroke-width:1.0;" width="15" x="239.5" y="488.06"/><rect fill="#FFFFFF" height="2" style="stroke:#000000;stroke-width:1.0;" width="4" x="237.5" y="490.06"/><rect fill="#FFFFFF" height="2" style="stroke:#000000;stroke-width:1.0;" width="4" x="237.5" y="494.06"/><text fill="#000000" font-family="Verdana" font-size="14" lengthAdjust="spacing" textLength="133" x="101.5" y="517.1352">WorkoutRepository</text></g><!--entity producer--><g id="elem_producer"><rect fill="#FFFFFF" height="47.0146" rx="2.5" ry="2.5" style="stroke:#000000;stroke-width:1.0;" width="160" x="295" y="483.06"/><rect fill="#FFFFFF" height="10" style="stroke:#000000;stroke-width:1.0;" width="15" x="435" y="488.06"/><rect fill="#FFFFFF" height="2" style="stroke:#000000;stroke-width:1.0;" width="4" x="433" y="490.06"/><rect fill="#FFFFFF" height="2" style="stroke:#000000;stroke-width:1.0;" width="4" x="433" y="494.06"/><text fill="#000000" font-family="Verdana" font-size="14" lengthAdjust="spacing" textLength="120" x="310" y="517.1352">MessageProducer</text></g><!--entity client--><g id="elem_client"><rect fill="#FFFFFF" height="64.0293" rx="2.5" ry="2.5" style="stroke:#000000;stroke-width:1.0;" width="147" x="172.5" y="12"/><rect fill="#FFFFFF" height="10" style="stroke:#000000;stroke-width:1.0;" width="15" x="299.5" y="17"/><rect fill="#FFFFFF" height="2" style="stroke:#000000;stroke-width:1.0;" width="4" x="297.5" y="19"/><rect fill="#FFFFFF" height="2" style="stroke:#000000;stroke-width:1.0;" width="4" x="297.5" y="23"/><text fill="#000000" font-family="Verdana" font-size="14" font-style="italic" lengthAdjust="spacing" textLength="75" x="203.5" y="46.0752">&#171;external&#187;</text><text fill="#000000" font-family="Verdana" font-size="14" lengthAdjust="spacing" textLength="107" x="187.5" y="63.0898">React Frontend</text></g><!--entity db--><g id="elem_db"><path d="M122.5,669.08 C122.5,659.08 173,659.08 173,659.08 C173,659.08 223.5,659.08 223.5,669.08 L223.5,695.0946 C223.5,705.0946 173,705.0946 173,705.0946 C173,705.0946 122.5,705.0946 122.5,695.0946 L122.5,669.08 " fill="#FFFFFF" style="stroke:#000000;stroke-width:1.0;"/><path d="M122.5,669.08 C122.5,679.08 173,679.08 173,679.08 C173,679.08 223.5,679.08 223.5,669.08 " fill="none" style="stroke:#000000;stroke-width:1.0;"/><text fill="#000000" font-family="Verdana" font-size="14" lengthAdjust="spacing" textLength="81" x="132.5" y="697.1552">PostgreSQL</text></g><!--entity sns--><g id="elem_sns"><ellipse cx="375" cy="682.0846" fill="#FFFFFF" rx="12" ry="12" style="stroke:#000000;stroke-width:1.0;"/><line style="stroke:#000000;stroke-width:1.0;" x1="363" x2="387" y1="696.0846" y2="696.0846"/><text fill="#000000" font-family="Verdana" font-size="14" lengthAdjust="spacing" textLength="72" x="339" y="712.1598">SNS Topic</text><text fill="#000000" font-family="Verdana" font-size="14" font-style="italic" lengthAdjust="spacing" textLength="114" x="318" y="663.1452">&#171;infrastructure&#187;</text></g><!--link client to rest--><g id="link_client_rest"><path d="M246,82.37 C246,121.16 246,174.25 246,208.64 " fill="none" id="client-rest" style="stroke:#000000;stroke-width:1.0;"/><polygon fill="#000000" points="246,76.37,242,85.37,246,81.37,250,85.37,246,76.37" style="stroke:#000000;stroke-width:1.0;"/><polygon fill="#000000" points="246,214.64,250,205.64,246,209.64,242,205.64,246,214.64" style="stroke:#000000;stroke-width:1.0;"/><text fill="#000000" font-family="Verdana" font-size="13" lengthAdjust="spacing" textLength="46" x="247" y="120.0998">[REST]</text></g><!--link rest to service--><g id="link_rest_service"><path d="M232.61,262.28 C219.44,284.66 202.4946,313.4499 189.3446,335.7799 " fill="none" id="rest-to-service" style="stroke:#000000;stroke-width:1.0;"/><polygon fill="#000000" points="186.3,340.95,194.3137,335.2246,188.8372,336.6416,187.4202,331.1651,186.3,340.95" style="stroke:#000000;stroke-width:1.0;"/></g><!--link service to repo--><g id="link_service_repo"><path d="M173,388.36 C173,414.39 173,450.73 173,476.77 " fill="none" id="service-to-repo" style="stroke:#000000;stroke-width:1.0;"/><polygon fill="#000000" points="173,482.77,177,473.77,173,477.77,169,473.77,173,482.77" style="stroke:#000000;stroke-width:1.0;"/></g><!--link repo to db--><g id="link_repo_db"><path d="M173,530.25 C173,563.6 173,625.48 173,658.67 " fill="none" id="repo-db" style="stroke:#000000;stroke-width:1.0;"/></g><!--link service to producer--><g id="link_service_producer"><path d="M205.9,388.36 C243.47,414.39 299.6191,453.3115 337.1791,479.3515 " fill="none" id="service-to-producer" style="stroke:#000000;stroke-width:1.0;"/><polygon fill="#000000" points="342.11,482.77,336.9927,474.3549,338.0009,479.9212,332.4347,480.9295,342.11,482.77" style="stroke:#000000;stroke-width:1.0;"/><text fill="#000000" font-family="Verdana" font-size="13" lengthAdjust="spacing" textLength="98" x="268.94" y="432.1298">Workout Event</text></g><!--link producer to sns--><g id="link_producer_sns"><path d="M375,530.25 C375,560.47 375,608.14 375,642.63 " fill="none" id="producer-to-sns" style="stroke:#000000;stroke-width:1.0;"/><polygon fill="#000000" points="375,648.63,379,639.63,375,643.63,371,639.63,375,648.63" style="stroke:#000000;stroke-width:1.0;"/><text fill="#000000" font-family="Verdana" font-size="13" lengthAdjust="spacing" textLength="47" x="376" y="616.1398">Publish</text></g><!--link TopRow to service--><!--link service to BottomRow--><!--SRC=[bPDDRzim38Rl-XMSBpiPs7a832n5WXtIEhCDT42GWsApYH1RD2YvcJVqlu-odRHhiaDr423nwo5VwPC_O8FGrjfOfJx3IlVKUN2-hutTWoSuc0fXpzIruK9kqIbtDBRLh1jeTNdKUvpDwY4mIU2F0bbpuWhvZcfYyAoj4tUqVhH9J4Xegzls9Ld_VqjkVYDyKI-1DevZMFmi5jd3jnKKwJfSg9AQbgo4G9IXBZqiMSBGLX5e1sLjWcasmryUsUewIPIQke3eH7oKDk96MpatuXaxv6TJedGam9hxQEfms2w11RKPdIAu6aHOhqIRnx70dH0nrJNoDa0nkh71bzVKrq7vI394J5GtIERaFJKVWScm9MSySJ_1j7JB-nwTamfhfgeh9_1sEapmrwBCqw98xmTTAktrJZj1N9FpUyRynsgGfDefAM1y3r7-a8ECqfI3mLadFHZxnDfvxahVCGQvnXhBLVgOZufFciPnCemIli8cM-J5LWsdS7sUbphBEVfAfs6JKw2Gn6ddTq7eyF85vX_tSxEIFff61ujdgHofYsce9TZYikvsjN67wCst-cwiTsfyAn1lv6jLQBSLdUmRn4l9T_QBi7y1]--></g></svg>