<?xml version="1.0" encoding="us-ascii" standalone="no"?><svg xmlns="http://www.w3.org/2000/svg" xmlns:xlink="http://www.w3.org/1999/xlink" contentStyleType="text/css" height="698px" preserveAspectRatio="none" style="width:1743px;height:698px;background:#FFFFFF;" version="1.1" viewBox="0 0 1743 698" width="1743px" zoomAndPan="magnify"><defs/><g><text fill="#000000" font-family="sans-serif" font-size="14" font-weight="bold" lengthAdjust="spacing" textLength="166" x="784.5" y="28.5352">Workout Deletion Flow</text><rect fill="none" height="208.1289" style="stroke:#000000;stroke-width:1.5;" width="923.5" x="10" y="240.3965"/><rect fill="none" height="109.8867" style="stroke:#000000;stroke-width:1.5;" width="782.5" x="943.5" y="564.457"/><line style="stroke:#181818;stroke-width:0.5;stroke-dasharray:5.0,5.0;" x1="80" x2="80" y1="121.4648" y2="691.3438"/><line style="stroke:#181818;stroke-width:0.5;stroke-dasharray:5.0,5.0;" x1="273" x2="273" y1="121.4648" y2="691.3438"/><line style="stroke:#181818;stroke-width:0.5;stroke-dasharray:5.0,5.0;" x1="452" x2="452" y1="121.4648" y2="691.3438"/><line style="stroke:#181818;stroke-width:0.5;stroke-dasharray:5.0,5.0;" x1="653.5" x2="653.5" y1="121.4648" y2="691.3438"/><line style="stroke:#181818;stroke-width:0.5;stroke-dasharray:5.0,5.0;" x1="814.5" x2="814.5" y1="121.4648" y2="691.3438"/><line style="stroke:#181818;stroke-width:0.5;stroke-dasharray:5.0,5.0;" x1="1036.5" x2="1036.5" y1="121.4648" y2="691.3438"/><line style="stroke:#181818;stroke-width:0.5;stroke-dasharray:5.0,5.0;" x1="1268.5" x2="1268.5" y1="121.4648" y2="691.3438"/><line style="stroke:#181818;stroke-width:0.5;stroke-dasharray:5.0,5.0;" x1="1486.5" x2="1486.5" y1="121.4648" y2="691.3438"/><text fill="#000000" font-family="sans-serif" font-size="14" lengthAdjust="spacing" textLength="114" x="20" y="118.5117">User (React App)</text><ellipse cx="80" cy="53.4766" fill="#E2E2F0" rx="8" ry="8" style="stroke:#181818;stroke-width:0.5;"/><path d="M80,61.4766 L80,88.4766 M67,69.4766 L93,69.4766 M80,88.4766 L67,103.4766 M80,88.4766 L93,103.4766 " fill="none" style="stroke:#181818;stroke-width:0.5;"/><rect fill="#E2E2F0" height="46.9766" rx="2.5" ry="2.5" style="stroke:#181818;stroke-width:0.5;" width="122" x="212" y="73.4883"/><text fill="#000000" font-family="sans-serif" font-size="14" font-style="italic" lengthAdjust="spacing" textLength="108" x="219" y="94.0234">&#171;Infrastructure&#187;</text><text fill="#000000" font-family="sans-serif" font-size="14" lengthAdjust="spacing" textLength="83" x="231.5" y="110.5117">API Gateway</text><rect fill="#E2E2F0" height="46.9766" rx="2.5" ry="2.5" style="stroke:#181818;stroke-width:0.5;" width="217" x="344" y="73.4883"/><text fill="#000000" font-family="sans-serif" font-size="14" font-style="italic" lengthAdjust="spacing" textLength="62" x="421.5" y="94.0234">&#171;Service&#187;</text><text fill="#000000" font-family="sans-serif" font-size="14" lengthAdjust="spacing" textLength="203" x="351" y="110.5117">Workout Management Service</text><text fill="#000000" font-family="sans-serif" font-size="14" font-style="italic" lengthAdjust="spacing" textLength="77" x="612" y="102.0234">&#171;Database&#187;</text><text fill="#000000" font-family="sans-serif" font-size="14" lengthAdjust="spacing" textLength="80" x="610.5" y="118.5117">Workout DB</text><path d="M635.5,52.4883 C635.5,42.4883 653.5,42.4883 653.5,42.4883 C653.5,42.4883 671.5,42.4883 671.5,52.4883 L671.5,78.4883 C671.5,88.4883 653.5,88.4883 653.5,88.4883 C653.5,88.4883 635.5,88.4883 635.5,78.4883 L635.5,52.4883 " fill="#E2E2F0" style="stroke:#181818;stroke-width:1.5;"/><path d="M635.5,52.4883 C635.5,62.4883 653.5,62.4883 653.5,62.4883 C653.5,62.4883 671.5,62.4883 671.5,52.4883 " fill="none" style="stroke:#181818;stroke-width:1.5;"/><rect fill="#E2E2F0" height="30.4883" rx="2.5" ry="2.5" style="stroke:#181818;stroke-width:0.5;" width="217" x="706.5" y="89.9766"/><text fill="#000000" font-family="sans-serif" font-size="14" lengthAdjust="spacing" textLength="203" x="713.5" y="110.5117">Workout.Domain.Events (SNS)</text><path d="M958.5,94.9766 L1115.5,94.9766 C1120.5,94.9766 1120.5,108.2207 1120.5,108.2207 C1120.5,108.2207 1120.5,121.4648 1115.5,121.4648 L958.5,121.4648 C953.5,121.4648 953.5,108.2207 953.5,108.2207 C953.5,108.2207 953.5,94.9766 958.5,94.9766 " fill="#E2E2F0" style="stroke:#181818;stroke-width:0.5;"/><path d="M1115.5,94.9766 C1110.5,94.9766 1110.5,108.2207 1110.5,108.2207 C1110.5,121.4648 1115.5,121.4648 1115.5,121.4648 " fill="none" style="stroke:#181818;stroke-width:0.5;"/><text fill="#000000" font-family="sans-serif" font-size="14" lengthAdjust="spacing" textLength="147" x="958.5" y="113.5117">Cleanup Queue (SQS)</text><rect fill="#E2E2F0" height="46.9766" rx="2.5" ry="2.5" style="stroke:#181818;stroke-width:0.5;" width="145" x="1196.5" y="73.4883"/><text fill="#000000" font-family="sans-serif" font-size="14" font-style="italic" lengthAdjust="spacing" textLength="62" x="1238" y="94.0234">&#171;Service&#187;</text><text fill="#000000" font-family="sans-serif" font-size="14" lengthAdjust="spacing" textLength="131" x="1203.5" y="110.5117">Notification Service</text><rect fill="#E2E2F0" height="46.9766" rx="2.5" ry="2.5" style="stroke:#181818;stroke-width:0.5;" width="115" x="1429.5" y="73.4883"/><text fill="#000000" font-family="sans-serif" font-size="14" font-style="italic" lengthAdjust="spacing" textLength="77" x="1448.5" y="94.0234">&#171;Database&#187;</text><text fill="#000000" font-family="sans-serif" font-size="14" lengthAdjust="spacing" textLength="101" x="1436.5" y="110.5117">Notification DB</text><rect fill="#EEEEEE" height="3" style="stroke:#EEEEEE;stroke-width:1.0;" width="1736" x="0" y="152.1201"/><line style="stroke:#000000;stroke-width:1.0;" x1="0" x2="1736" y1="152.1201" y2="152.1201"/><line style="stroke:#000000;stroke-width:1.0;" x1="0" x2="1736" y1="155.1201" y2="155.1201"/><rect fill="#EEEEEE" height="23.3105" style="stroke:#000000;stroke-width:2.0;" width="236" x="750" y="141.4648"/><text fill="#000000" font-family="sans-serif" font-size="13" font-weight="bold" lengthAdjust="spacing" textLength="218" x="756" y="158.0332">Synchronous Request/Response</text><polygon fill="#181818" points="261,192.0859,271,196.0859,261,200.0859,265,196.0859" style="stroke:#181818;stroke-width:1.0;"/><line style="stroke:#181818;stroke-width:1.0;" x1="80" x2="267" y1="196.0859" y2="196.0859"/><text fill="#000000" font-family="sans-serif" font-size="13" lengthAdjust="spacing" textLength="169" x="87" y="191.3438">DELETE /api/workouts/{id}</text><polygon fill="#181818" points="440.5,221.3965,450.5,225.3965,440.5,229.3965,444.5,225.3965" style="stroke:#181818;stroke-width:1.0;"/><line style="stroke:#181818;stroke-width:1.0;" x1="273" x2="446.5" y1="225.3965" y2="225.3965"/><text fill="#000000" font-family="sans-serif" font-size="13" lengthAdjust="spacing" textLength="104" x="280" y="220.6543">Forward Request</text><path d="M10,240.3965 L72,240.3965 L72,247.707 L62,257.707 L10,257.707 L10,240.3965 " fill="#EEEEEE" style="stroke:#000000;stroke-width:1.5;"/><rect fill="none" height="208.1289" style="stroke:#000000;stroke-width:1.5;" width="923.5" x="10" y="240.3965"/><text fill="#000000" font-family="sans-serif" font-size="13" font-weight="bold" lengthAdjust="spacing" textLength="17" x="25" y="253.9648">alt</text><text fill="#000000" font-family="sans-serif" font-size="11" font-weight="bold" lengthAdjust="spacing" textLength="71" x="87" y="253.0313">[DB Success]</text><polygon fill="#181818" points="641.5,275.0176,651.5,279.0176,641.5,283.0176,645.5,279.0176" style="stroke:#181818;stroke-width:1.0;"/><line style="stroke:#181818;stroke-width:1.0;" x1="452.5" x2="647.5" y1="279.0176" y2="279.0176"/><text fill="#000000" font-family="sans-serif" font-size="13" font-weight="bold" lengthAdjust="spacing" textLength="177" x="459.5" y="274.2754">Mark Inactive (Soft Delete)</text><polygon fill="#181818" points="803,304.3281,813,308.3281,803,312.3281,807,308.3281" style="stroke:#181818;stroke-width:1.0;"/><line style="stroke:#181818;stroke-width:1.0;" x1="452.5" x2="809" y1="308.3281" y2="308.3281"/><text fill="#000000" font-family="sans-serif" font-size="13" lengthAdjust="spacing" textLength="246" x="459.5" y="303.5859">Emit 'WorkoutDeleted' {action: "delete"}</text><polygon fill="#181818" points="284,333.6387,274,337.6387,284,341.6387,280,337.6387" style="stroke:#181818;stroke-width:1.0;"/><line style="stroke:#181818;stroke-width:1.0;stroke-dasharray:2.0,2.0;" x1="278" x2="451.5" y1="337.6387" y2="337.6387"/><text fill="#000000" font-family="sans-serif" font-size="13" lengthAdjust="spacing" textLength="46" x="290" y="332.8965">200 OK</text><polygon fill="#181818" points="91,362.9492,81,366.9492,91,370.9492,87,366.9492" style="stroke:#181818;stroke-width:1.0;"/><line style="stroke:#181818;stroke-width:1.0;stroke-dasharray:2.0,2.0;" x1="85" x2="272" y1="366.9492" y2="366.9492"/><text fill="#000000" font-family="sans-serif" font-size="13" lengthAdjust="spacing" textLength="50" x="97" y="362.207">Success</text><line style="stroke:#000000;stroke-width:1.0;stroke-dasharray:2.0,2.0;" x1="10" x2="933.5" y1="375.9492" y2="375.9492"/><text fill="#000000" font-family="sans-serif" font-size="11" font-weight="bold" lengthAdjust="spacing" textLength="66" x="15" y="386.584">[DB Failure]</text><polygon fill="#181818" points="284,407.2148,274,411.2148,284,415.2148,280,411.2148" style="stroke:#181818;stroke-width:1.0;"/><line style="stroke:#181818;stroke-width:1.0;stroke-dasharray:2.0,2.0;" x1="278" x2="451.5" y1="411.2148" y2="411.2148"/><text fill="#000000" font-family="sans-serif" font-size="13" lengthAdjust="spacing" textLength="58" x="290" y="406.4727">500 Error</text><polygon fill="#181818" points="91,436.5254,81,440.5254,91,444.5254,87,440.5254" style="stroke:#181818;stroke-width:1.0;"/><line style="stroke:#181818;stroke-width:1.0;stroke-dasharray:2.0,2.0;" x1="85" x2="272" y1="440.5254" y2="440.5254"/><text fill="#000000" font-family="sans-serif" font-size="13" lengthAdjust="spacing" textLength="30" x="97" y="435.7832">Error</text><rect fill="#EEEEEE" height="3" style="stroke:#EEEEEE;stroke-width:1.0;" width="1736" x="0" y="476.1807"/><line style="stroke:#000000;stroke-width:1.0;" x1="0" x2="1736" y1="476.1807" y2="476.1807"/><line style="stroke:#000000;stroke-width:1.0;" x1="0" x2="1736" y1="479.1807" y2="479.1807"/><rect fill="#EEEEEE" height="23.3105" style="stroke:#000000;stroke-width:2.0;" width="136" x="800" y="465.5254"/><text fill="#000000" font-family="sans-serif" font-size="13" font-weight="bold" lengthAdjust="spacing" textLength="118" x="806" y="482.0938">Async Processing</text><polygon fill="#181818" points="1025,516.1465,1035,520.1465,1025,524.1465,1029,520.1465" style="stroke:#181818;stroke-width:1.0;"/><line style="stroke:#181818;stroke-width:1.0;" x1="815" x2="1031" y1="520.1465" y2="520.1465"/><text fill="#000000" font-family="sans-serif" font-size="13" lengthAdjust="spacing" textLength="198" x="822" y="515.4043">Filter match: action == "delete"</text><polygon fill="#181818" points="1048,545.457,1038,549.457,1048,553.457,1044,549.457" style="stroke:#181818;stroke-width:1.0;"/><line style="stroke:#181818;stroke-width:1.0;" x1="1042" x2="1268" y1="549.457" y2="549.457"/><text fill="#000000" font-family="sans-serif" font-size="13" lengthAdjust="spacing" textLength="208" x="1054" y="544.7148">Consume 'WorkoutDeleted' Event</text><path d="M943.5,564.457 L1005.5,564.457 L1005.5,571.7676 L995.5,581.7676 L943.5,581.7676 L943.5,564.457 " fill="#EEEEEE" style="stroke:#000000;stroke-width:1.5;"/><rect fill="none" height="109.8867" style="stroke:#000000;stroke-width:1.5;" width="782.5" x="943.5" y="564.457"/><text fill="#000000" font-family="sans-serif" font-size="13" font-weight="bold" lengthAdjust="spacing" textLength="17" x="958.5" y="578.0254">alt</text><text fill="#000000" font-family="sans-serif" font-size="11" font-weight="bold" lengthAdjust="spacing" textLength="100" x="1020.5" y="577.0918">[Cleanup Success]</text><polygon fill="#181818" points="1475,602.0781,1485,606.0781,1475,610.0781,1479,606.0781" style="stroke:#181818;stroke-width:1.0;"/><line style="stroke:#181818;stroke-width:1.0;" x1="1269" x2="1481" y1="606.0781" y2="606.0781"/><text fill="#000000" font-family="sans-serif" font-size="13" lengthAdjust="spacing" textLength="194" x="1276" y="601.3359">Mark Notifications as Archived</text><path d="M1492,586.7676 L1492,611.7676 L1711,611.7676 L1711,596.7676 L1701,586.7676 L1492,586.7676 " fill="#FEFFDD" style="stroke:#181818;stroke-width:0.5;"/><path d="M1701,586.7676 L1701,596.7676 L1711,596.7676 L1701,586.7676 " fill="#FEFFDD" style="stroke:#181818;stroke-width:0.5;"/><text fill="#000000" font-family="sans-serif" font-size="13" lengthAdjust="spacing" textLength="198" x="1498" y="604.3359">Ensures data consistency for UI</text><line style="stroke:#000000;stroke-width:1.0;stroke-dasharray:2.0,2.0;" x1="943.5" x2="1726" y1="618.0781" y2="618.0781"/><text fill="#000000" font-family="sans-serif" font-size="11" font-weight="bold" lengthAdjust="spacing" textLength="95" x="948.5" y="628.7129">[Cleanup Failure]</text><line style="stroke:#181818;stroke-width:1.0;" x1="1037" x2="1079" y1="653.3438" y2="653.3438"/><line style="stroke:#181818;stroke-width:1.0;" x1="1079" x2="1079" y1="653.3438" y2="666.3438"/><line style="stroke:#181818;stroke-width:1.0;" x1="1038" x2="1079" y1="666.3438" y2="666.3438"/><polygon fill="#181818" points="1048,662.3438,1038,666.3438,1048,670.3438,1044,666.3438" style="stroke:#181818;stroke-width:1.0;"/><text fill="#000000" font-family="sans-serif" font-size="13" lengthAdjust="spacing" textLength="200" x="1044" y="648.6016">[Internal] Move to Cleanup-DLQ</text><!--SRC=[TLJ1Rk8m4BtxAqOS5ehKqkrsBr51eX0gj8KjX8h3QWzkCe3LO6Tj1ugg_ljEx8G6iSi9Zz_ClFTcd8r845PAsHVrngomAS9IwLULMnXYYbOe2QDKxHbhmaAWXgy1X6yMjUGfV85GMdrWFBPAG-FPq7rhZdI4VfPTD80R603BkBOY5XcN5Xhzfp4yS8jxVd3tT7w0kxknN6bkhCvZcslizOxzRW8OA8qmL5ikv6cjYkc4Ixx6BL8iGhqJCRhIouWAbm6gc73BNxZ1pxpXlSSDxmauBAzhlRy5q3S76SCfkt-IkF84hy8TqJ3GYgQHDs2veB_iJuuvTHwao6MUmSmTMz6i10rcnwQt0MdTI-g6V4lQfSctgCrfqwcoOYLYxkPJrpmzrVp_f5Bxz4nxjmiHQTve9LLkO8v4tTZE74r6N12wNSO6SDdpaoEouMEu2A73Cz7PUozCvrqa7ym124Xp262az9xhfAh764-B0K2Knp4Qmu1-12pW50sWtPvm_KhEqpQ9NU6LMfKxYHVjjiFNamgNAItS2WlDSYOUdJJXlIYYP02Dn8KQ7wVvdsfkhg_XvmztuUdJrO3Y5KrCoG8YEE8YBLRXlC9tgX1ghVHv4Hz6cJYN_MezQLKK5dBjdFKw2loiC4sazDHWossy2S2B8DXH1cCrSBagv-hTIdh3g_shk-vBJ9thplFwdXZtHdMyeHaa3YwLHT1YlR4aY3fgD50yBOW9BOn56H_eYwBXUUpTgdhMBIF25UrVO-a_9xzXecZGLbKPbyF7cNFhBm00]--></g></svg>