<?xml version="1.0" encoding="us-ascii" standalone="no"?><svg xmlns="http://www.w3.org/2000/svg" xmlns:xlink="http://www.w3.org/1999/xlink" contentStyleType="text/css" height="996px" preserveAspectRatio="none" style="width:2033px;height:996px;background:#FFFFFF;" version="1.1" viewBox="0 0 2033 996" width="2033px" zoomAndPan="magnify"><defs/><g><text fill="#000000" font-family="sans-serif" font-size="14" font-weight="bold" lengthAdjust="spacing" textLength="286" x="869.5" y="28.5352">Workout Completion and Analysis Flow</text><rect fill="none" height="239.4395" style="stroke:#000000;stroke-width:1.5;" width="861.5" x="20" y="240.3965"/><rect fill="none" height="46.6211" style="stroke:#000000;stroke-width:1.5;" width="568.5" x="303" y="294.0176"/><rect fill="none" height="103.8867" style="stroke:#000000;stroke-width:1.5;" width="690" x="861.5" y="595.7676"/><rect fill="none" height="229.1289" style="stroke:#000000;stroke-width:1.5;" width="2006" x="10" y="742.9648"/><rect fill="none" height="75.9316" style="stroke:#000000;stroke-width:1.5;" width="1686.5" x="20" y="831.8965"/><line style="stroke:#181818;stroke-width:0.5;stroke-dasharray:5.0,5.0;" x1="90" x2="90" y1="121.4648" y2="989.0938"/><line style="stroke:#181818;stroke-width:0.5;stroke-dasharray:5.0,5.0;" x1="242" x2="242" y1="121.4648" y2="989.0938"/><line style="stroke:#181818;stroke-width:0.5;stroke-dasharray:5.0,5.0;" x1="421" x2="421" y1="121.4648" y2="989.0938"/><line style="stroke:#181818;stroke-width:0.5;stroke-dasharray:5.0,5.0;" x1="591.5" x2="591.5" y1="121.4648" y2="989.0938"/><line style="stroke:#181818;stroke-width:0.5;stroke-dasharray:5.0,5.0;" x1="752.5" x2="752.5" y1="121.4648" y2="989.0938"/><line style="stroke:#181818;stroke-width:0.5;stroke-dasharray:5.0,5.0;" x1="987.5" x2="987.5" y1="121.4648" y2="989.0938"/><line style="stroke:#181818;stroke-width:0.5;stroke-dasharray:5.0,5.0;" x1="1208.5" x2="1208.5" y1="121.4648" y2="989.0938"/><line style="stroke:#181818;stroke-width:0.5;stroke-dasharray:5.0,5.0;" x1="1446.5" x2="1446.5" y1="121.4648" y2="989.0938"/><line style="stroke:#181818;stroke-width:0.5;stroke-dasharray:5.0,5.0;" x1="1623.5" x2="1623.5" y1="121.4648" y2="989.0938"/><line style="stroke:#181818;stroke-width:0.5;stroke-dasharray:5.0,5.0;" x1="1791.5" x2="1791.5" y1="121.4648" y2="989.0938"/><text fill="#000000" font-family="sans-serif" font-size="14" lengthAdjust="spacing" textLength="114" x="30" y="118.5117">User (React App)</text><ellipse cx="90" cy="53.4766" fill="#E2E2F0" rx="8" ry="8" style="stroke:#181818;stroke-width:0.5;"/><path d="M90,61.4766 L90,88.4766 M77,69.4766 L103,69.4766 M90,88.4766 L77,103.4766 M90,88.4766 L103,103.4766 " fill="none" style="stroke:#181818;stroke-width:0.5;"/><rect fill="#E2E2F0" height="46.9766" rx="2.5" ry="2.5" style="stroke:#181818;stroke-width:0.5;" width="122" x="181" y="73.4883"/><text fill="#000000" font-family="sans-serif" font-size="14" font-style="italic" lengthAdjust="spacing" textLength="108" x="188" y="94.0234">&#171;Infrastructure&#187;</text><text fill="#000000" font-family="sans-serif" font-size="14" lengthAdjust="spacing" textLength="83" x="200.5" y="110.5117">API Gateway</text><rect fill="#E2E2F0" height="46.9766" rx="2.5" ry="2.5" style="stroke:#181818;stroke-width:0.5;" width="217" x="313" y="73.4883"/><text fill="#000000" font-family="sans-serif" font-size="14" font-style="italic" lengthAdjust="spacing" textLength="62" x="390.5" y="94.0234">&#171;Service&#187;</text><text fill="#000000" font-family="sans-serif" font-size="14" lengthAdjust="spacing" textLength="203" x="320" y="110.5117">Workout Management Service</text><text fill="#000000" font-family="sans-serif" font-size="14" font-style="italic" lengthAdjust="spacing" textLength="77" x="550" y="102.0234">&#171;Database&#187;</text><text fill="#000000" font-family="sans-serif" font-size="14" lengthAdjust="spacing" textLength="80" x="548.5" y="118.5117">Workout DB</text><path d="M573.5,52.4883 C573.5,42.4883 591.5,42.4883 591.5,42.4883 C591.5,42.4883 609.5,42.4883 609.5,52.4883 L609.5,78.4883 C609.5,88.4883 591.5,88.4883 591.5,88.4883 C591.5,88.4883 573.5,88.4883 573.5,78.4883 L573.5,52.4883 " fill="#E2E2F0" style="stroke:#181818;stroke-width:1.5;"/><path d="M573.5,52.4883 C573.5,62.4883 591.5,62.4883 591.5,62.4883 C591.5,62.4883 609.5,62.4883 609.5,52.4883 " fill="none" style="stroke:#181818;stroke-width:1.5;"/><rect fill="#E2E2F0" height="30.4883" rx="2.5" ry="2.5" style="stroke:#181818;stroke-width:0.5;" width="217" x="644.5" y="89.9766"/><text fill="#000000" font-family="sans-serif" font-size="14" lengthAdjust="spacing" textLength="203" x="651.5" y="110.5117">Workout.Domain.Events (SNS)</text><path d="M876.5,94.9766 L1099.5,94.9766 C1104.5,94.9766 1104.5,108.2207 1104.5,108.2207 C1104.5,108.2207 1104.5,121.4648 1099.5,121.4648 L876.5,121.4648 C871.5,121.4648 871.5,108.2207 871.5,108.2207 C871.5,108.2207 871.5,94.9766 876.5,94.9766 " fill="#E2E2F0" style="stroke:#181818;stroke-width:0.5;"/><path d="M1099.5,94.9766 C1094.5,94.9766 1094.5,108.2207 1094.5,108.2207 C1094.5,121.4648 1099.5,121.4648 1099.5,121.4648 " fill="none" style="stroke:#181818;stroke-width:0.5;"/><text fill="#000000" font-family="sans-serif" font-size="14" lengthAdjust="spacing" textLength="213" x="876.5" y="113.5117">Workout Analytics Queue (SQS)</text><path d="M1119.5,94.9766 L1298.5,94.9766 C1303.5,94.9766 1303.5,108.2207 1303.5,108.2207 C1303.5,108.2207 1303.5,121.4648 1298.5,121.4648 L1119.5,121.4648 C1114.5,121.4648 1114.5,108.2207 1114.5,108.2207 C1114.5,108.2207 1114.5,94.9766 1119.5,94.9766 " fill="#E2E2F0" style="stroke:#181818;stroke-width:0.5;"/><path d="M1298.5,94.9766 C1293.5,94.9766 1293.5,108.2207 1293.5,108.2207 C1293.5,121.4648 1298.5,121.4648 1298.5,121.4648 " fill="none" style="stroke:#181818;stroke-width:0.5;"/><text fill="#000000" font-family="sans-serif" font-size="14" lengthAdjust="spacing" textLength="169" x="1119.5" y="113.5117">Notification Queue (SQS)</text><rect fill="#E2E2F0" height="46.9766" rx="2.5" ry="2.5" style="stroke:#181818;stroke-width:0.5;" width="189" x="1352.5" y="73.4883"/><text fill="#000000" font-family="sans-serif" font-size="14" font-style="italic" lengthAdjust="spacing" textLength="62" x="1416" y="94.0234">&#171;Service&#187;</text><text fill="#000000" font-family="sans-serif" font-size="14" lengthAdjust="spacing" textLength="175" x="1359.5" y="110.5117">Workout Analytics Service</text><rect fill="#E2E2F0" height="46.9766" rx="2.5" ry="2.5" style="stroke:#181818;stroke-width:0.5;" width="145" x="1551.5" y="73.4883"/><text fill="#000000" font-family="sans-serif" font-size="14" font-style="italic" lengthAdjust="spacing" textLength="62" x="1593" y="94.0234">&#171;Service&#187;</text><text fill="#000000" font-family="sans-serif" font-size="14" lengthAdjust="spacing" textLength="131" x="1558.5" y="110.5117">Notification Service</text><rect fill="#E2E2F0" height="46.9766" rx="2.5" ry="2.5" style="stroke:#181818;stroke-width:0.5;" width="115" x="1734.5" y="73.4883"/><text fill="#000000" font-family="sans-serif" font-size="14" font-style="italic" lengthAdjust="spacing" textLength="77" x="1753.5" y="94.0234">&#171;Database&#187;</text><text fill="#000000" font-family="sans-serif" font-size="14" lengthAdjust="spacing" textLength="101" x="1741.5" y="110.5117">Notification DB</text><rect fill="#EEEEEE" height="3" style="stroke:#EEEEEE;stroke-width:1.0;" width="2026" x="0" y="152.1201"/><line style="stroke:#000000;stroke-width:1.0;" x1="0" x2="2026" y1="152.1201" y2="152.1201"/><line style="stroke:#000000;stroke-width:1.0;" x1="0" x2="2026" y1="155.1201" y2="155.1201"/><rect fill="#EEEEEE" height="23.3105" style="stroke:#000000;stroke-width:2.0;" width="236" x="895" y="141.4648"/><text fill="#000000" font-family="sans-serif" font-size="13" font-weight="bold" lengthAdjust="spacing" textLength="218" x="901" y="158.0332">Synchronous Request/Response</text><polygon fill="#181818" points="230,192.0859,240,196.0859,230,200.0859,234,196.0859" style="stroke:#181818;stroke-width:1.0;"/><line style="stroke:#181818;stroke-width:1.0;" x1="90" x2="236" y1="196.0859" y2="196.0859"/><text fill="#000000" font-family="sans-serif" font-size="13" lengthAdjust="spacing" textLength="128" x="97" y="191.3438">POST /api/workouts</text><polygon fill="#181818" points="409.5,221.3965,419.5,225.3965,409.5,229.3965,413.5,225.3965" style="stroke:#181818;stroke-width:1.0;"/><line style="stroke:#181818;stroke-width:1.0;" x1="242" x2="415.5" y1="225.3965" y2="225.3965"/><text fill="#000000" font-family="sans-serif" font-size="13" lengthAdjust="spacing" textLength="104" x="249" y="220.6543">Forward Request</text><path d="M20,240.3965 L82,240.3965 L82,247.707 L72,257.707 L20,257.707 L20,240.3965 " fill="#EEEEEE" style="stroke:#000000;stroke-width:1.5;"/><rect fill="none" height="239.4395" style="stroke:#000000;stroke-width:1.5;" width="861.5" x="20" y="240.3965"/><text fill="#000000" font-family="sans-serif" font-size="13" font-weight="bold" lengthAdjust="spacing" textLength="17" x="35" y="253.9648">alt</text><text fill="#000000" font-family="sans-serif" font-size="11" font-weight="bold" lengthAdjust="spacing" textLength="71" x="97" y="253.0313">[DB Success]</text><polygon fill="#181818" points="579.5,275.0176,589.5,279.0176,579.5,283.0176,583.5,279.0176" style="stroke:#181818;stroke-width:1.0;"/><line style="stroke:#181818;stroke-width:1.0;" x1="421.5" x2="585.5" y1="279.0176" y2="279.0176"/><text fill="#000000" font-family="sans-serif" font-size="13" lengthAdjust="spacing" textLength="146" x="428.5" y="274.2754">Persist Workout Record</text><path d="M303,294.0176 L370,294.0176 L370,301.3281 L360,311.3281 L303,311.3281 L303,294.0176 " fill="#EEEEEE" style="stroke:#000000;stroke-width:1.5;"/><rect fill="none" height="46.6211" style="stroke:#000000;stroke-width:1.5;" width="568.5" x="303" y="294.0176"/><text fill="#000000" font-family="sans-serif" font-size="13" font-weight="bold" lengthAdjust="spacing" textLength="22" x="318" y="307.5859">opt</text><text fill="#000000" font-family="sans-serif" font-size="11" font-weight="bold" lengthAdjust="spacing" textLength="148" x="385" y="306.6523">[status == "COMPLETED"]</text><polygon fill="#181818" points="741,328.6387,751,332.6387,741,336.6387,745,332.6387" style="stroke:#181818;stroke-width:1.0;"/><line style="stroke:#181818;stroke-width:1.0;" x1="421.5" x2="747" y1="332.6387" y2="332.6387"/><text fill="#000000" font-family="sans-serif" font-size="13" lengthAdjust="spacing" textLength="277" x="428.5" y="327.8965">Emit 'WorkoutCompleted' {action: "process"}</text><polygon fill="#181818" points="253,364.9492,243,368.9492,253,372.9492,249,368.9492" style="stroke:#181818;stroke-width:1.0;"/><line style="stroke:#181818;stroke-width:1.0;stroke-dasharray:2.0,2.0;" x1="247" x2="420.5" y1="368.9492" y2="368.9492"/><text fill="#000000" font-family="sans-serif" font-size="13" lengthAdjust="spacing" textLength="86" x="259" y="364.207">202 Accepted</text><polygon fill="#181818" points="101,394.2598,91,398.2598,101,402.2598,97,398.2598" style="stroke:#181818;stroke-width:1.0;"/><line style="stroke:#181818;stroke-width:1.0;stroke-dasharray:2.0,2.0;" x1="95" x2="241" y1="398.2598" y2="398.2598"/><text fill="#000000" font-family="sans-serif" font-size="13" lengthAdjust="spacing" textLength="50" x="107" y="393.5176">Success</text><line style="stroke:#000000;stroke-width:1.0;stroke-dasharray:2.0,2.0;" x1="20" x2="881.5" y1="407.2598" y2="407.2598"/><text fill="#000000" font-family="sans-serif" font-size="11" font-weight="bold" lengthAdjust="spacing" textLength="66" x="25" y="417.8945">[DB Failure]</text><polygon fill="#181818" points="253,438.5254,243,442.5254,253,446.5254,249,442.5254" style="stroke:#181818;stroke-width:1.0;"/><line style="stroke:#181818;stroke-width:1.0;stroke-dasharray:2.0,2.0;" x1="247" x2="420.5" y1="442.5254" y2="442.5254"/><text fill="#000000" font-family="sans-serif" font-size="13" lengthAdjust="spacing" textLength="58" x="259" y="437.7832">500 Error</text><polygon fill="#181818" points="101,467.8359,91,471.8359,101,475.8359,97,471.8359" style="stroke:#181818;stroke-width:1.0;"/><line style="stroke:#181818;stroke-width:1.0;stroke-dasharray:2.0,2.0;" x1="95" x2="241" y1="471.8359" y2="471.8359"/><text fill="#000000" font-family="sans-serif" font-size="13" lengthAdjust="spacing" textLength="30" x="107" y="467.0938">Error</text><rect fill="#EEEEEE" height="3" style="stroke:#EEEEEE;stroke-width:1.0;" width="2026" x="0" y="507.4912"/><line style="stroke:#000000;stroke-width:1.0;" x1="0" x2="2026" y1="507.4912" y2="507.4912"/><line style="stroke:#000000;stroke-width:1.0;" x1="0" x2="2026" y1="510.4912" y2="510.4912"/><rect fill="#EEEEEE" height="23.3105" style="stroke:#000000;stroke-width:2.0;" width="136" x="945" y="496.8359"/><text fill="#000000" font-family="sans-serif" font-size="13" font-weight="bold" lengthAdjust="spacing" textLength="118" x="951" y="513.4043">Async Processing</text><polygon fill="#181818" points="976,547.457,986,551.457,976,555.457,980,551.457" style="stroke:#181818;stroke-width:1.0;"/><line style="stroke:#181818;stroke-width:1.0;" x1="753" x2="982" y1="551.457" y2="551.457"/><text fill="#000000" font-family="sans-serif" font-size="13" lengthAdjust="spacing" textLength="209" x="760" y="546.7148">Filter match: action == "process"</text><polygon fill="#181818" points="1435,576.7676,1445,580.7676,1435,584.7676,1439,580.7676" style="stroke:#181818;stroke-width:1.0;"/><line style="stroke:#181818;stroke-width:1.0;" x1="988" x2="1441" y1="580.7676" y2="580.7676"/><text fill="#000000" font-family="sans-serif" font-size="13" lengthAdjust="spacing" textLength="228" x="995" y="576.0254">Consume 'WorkoutCompleted' Event</text><path d="M861.5,595.7676 L923.5,595.7676 L923.5,603.0781 L913.5,613.0781 L861.5,613.0781 L861.5,595.7676 " fill="#EEEEEE" style="stroke:#000000;stroke-width:1.5;"/><rect fill="none" height="103.8867" style="stroke:#000000;stroke-width:1.5;" width="690" x="861.5" y="595.7676"/><text fill="#000000" font-family="sans-serif" font-size="13" font-weight="bold" lengthAdjust="spacing" textLength="17" x="876.5" y="609.3359">alt</text><text fill="#000000" font-family="sans-serif" font-size="11" font-weight="bold" lengthAdjust="spacing" textLength="118" x="938.5" y="608.4023">[AI Analysis Success]</text><polygon fill="#181818" points="1220,630.3887,1210,634.3887,1220,638.3887,1216,634.3887" style="stroke:#181818;stroke-width:1.0;"/><line style="stroke:#181818;stroke-width:1.0;" x1="1214" x2="1446" y1="634.3887" y2="634.3887"/><text fill="#000000" font-family="sans-serif" font-size="13" lengthAdjust="spacing" textLength="130" x="1226" y="629.6465">Emit 'AnalysisResult'</text><line style="stroke:#000000;stroke-width:1.0;stroke-dasharray:2.0,2.0;" x1="861.5" x2="1551.5" y1="643.3887" y2="643.3887"/><text fill="#000000" font-family="sans-serif" font-size="11" font-weight="bold" lengthAdjust="spacing" textLength="62" x="866.5" y="654.0234">[AI Failure]</text><line style="stroke:#181818;stroke-width:1.0;" x1="988" x2="1030" y1="678.6543" y2="678.6543"/><line style="stroke:#181818;stroke-width:1.0;" x1="1030" x2="1030" y1="678.6543" y2="691.6543"/><line style="stroke:#181818;stroke-width:1.0;" x1="989" x2="1030" y1="691.6543" y2="691.6543"/><polygon fill="#181818" points="999,687.6543,989,691.6543,999,695.6543,995,691.6543" style="stroke:#181818;stroke-width:1.0;"/><text fill="#000000" font-family="sans-serif" font-size="13" lengthAdjust="spacing" textLength="202" x="995" y="673.9121">[Internal] Move to Analysis-DLQ</text><polygon fill="#181818" points="1612,723.9648,1622,727.9648,1612,731.9648,1616,727.9648" style="stroke:#181818;stroke-width:1.0;"/><line style="stroke:#181818;stroke-width:1.0;" x1="1209" x2="1618" y1="727.9648" y2="727.9648"/><text fill="#000000" font-family="sans-serif" font-size="13" lengthAdjust="spacing" textLength="161" x="1216" y="723.2227">Consume 'AnalysisResult'</text><path d="M10,742.9648 L72,742.9648 L72,750.2754 L62,760.2754 L10,760.2754 L10,742.9648 " fill="#EEEEEE" style="stroke:#000000;stroke-width:1.5;"/><rect fill="none" height="229.1289" style="stroke:#000000;stroke-width:1.5;" width="2006" x="10" y="742.9648"/><text fill="#000000" font-family="sans-serif" font-size="13" font-weight="bold" lengthAdjust="spacing" textLength="17" x="25" y="756.5332">alt</text><text fill="#000000" font-family="sans-serif" font-size="11" font-weight="bold" lengthAdjust="spacing" textLength="121" x="87" y="755.5996">[Notification Success]</text><polygon fill="#181818" points="1780,780.5859,1790,784.5859,1780,788.5859,1784,784.5859" style="stroke:#181818;stroke-width:1.0;"/><line style="stroke:#181818;stroke-width:1.0;" x1="1624" x2="1786" y1="784.5859" y2="784.5859"/><text fill="#000000" font-family="sans-serif" font-size="13" lengthAdjust="spacing" textLength="144" x="1631" y="779.8438">Store Notification Data</text><path d="M1797,765.2754 L1797,790.2754 L2001,790.2754 L2001,775.2754 L1991,765.2754 L1797,765.2754 " fill="#FEFFDD" style="stroke:#181818;stroke-width:0.5;"/><path d="M1991,765.2754 L1991,775.2754 L2001,775.2754 L1991,765.2754 " fill="#FEFFDD" style="stroke:#181818;stroke-width:0.5;"/><text fill="#000000" font-family="sans-serif" font-size="13" lengthAdjust="spacing" textLength="183" x="1803" y="782.8438">Persist with status "UNREAD"</text><line style="stroke:#181818;stroke-width:1.0;" x1="91" x2="101" y1="816.8965" y2="812.8965"/><line style="stroke:#181818;stroke-width:1.0;" x1="91" x2="101" y1="816.8965" y2="820.8965"/><line style="stroke:#181818;stroke-width:1.0;" x1="90" x2="1623" y1="816.8965" y2="816.8965"/><text fill="#000000" font-family="sans-serif" font-size="13" font-weight="bold" lengthAdjust="spacing" textLength="166" x="107" y="812.1543">SSE: "Anaylsis Complete"</text><path d="M20,831.8965 L237,831.8965 L237,839.207 L227,849.207 L20,849.207 L20,831.8965 " fill="#EEEEEE" style="stroke:#000000;stroke-width:1.5;"/><rect fill="none" height="75.9316" style="stroke:#000000;stroke-width:1.5;" width="1686.5" x="20" y="831.8965"/><text fill="#000000" font-family="sans-serif" font-size="13" font-weight="bold" lengthAdjust="spacing" textLength="172" x="35" y="845.4648">UI Data Sync (Pull-based)</text><polygon fill="#181818" points="1612,866.5176,1622,870.5176,1612,874.5176,1616,870.5176" style="stroke:#181818;stroke-width:1.0;"/><line style="stroke:#181818;stroke-width:1.0;" x1="90" x2="1618" y1="870.5176" y2="870.5176"/><text fill="#000000" font-family="sans-serif" font-size="13" lengthAdjust="spacing" textLength="141" x="97" y="865.7754">GET /api/notifications</text><polygon fill="#181818" points="101,895.8281,91,899.8281,101,903.8281,97,899.8281" style="stroke:#181818;stroke-width:1.0;"/><line style="stroke:#181818;stroke-width:1.0;stroke-dasharray:2.0,2.0;" x1="95" x2="1623" y1="899.8281" y2="899.8281"/><text fill="#000000" font-family="sans-serif" font-size="13" lengthAdjust="spacing" textLength="147" x="107" y="895.0859">Return Notification List</text><line style="stroke:#000000;stroke-width:1.0;stroke-dasharray:2.0,2.0;" x1="10" x2="2016" y1="915.8281" y2="915.8281"/><text fill="#000000" font-family="sans-serif" font-size="11" font-weight="bold" lengthAdjust="spacing" textLength="116" x="15" y="926.4629">[Notification Failure]</text><line style="stroke:#181818;stroke-width:1.0;" x1="1209" x2="1251" y1="951.0938" y2="951.0938"/><line style="stroke:#181818;stroke-width:1.0;" x1="1251" x2="1251" y1="951.0938" y2="964.0938"/><line style="stroke:#181818;stroke-width:1.0;" x1="1210" x2="1251" y1="964.0938" y2="964.0938"/><polygon fill="#181818" points="1220,960.0938,1210,964.0938,1220,968.0938,1216,964.0938" style="stroke:#181818;stroke-width:1.0;"/><text fill="#000000" font-family="sans-serif" font-size="13" lengthAdjust="spacing" textLength="224" x="1216" y="946.3516">[Internal] Move to Notification-DLQ</text><!--SRC=[ZLJBRjim4BphAnOwr8w1F9gs5o4EeDXAO21HB2j13aKFZCJOH6LI9QauHj5_xvBKCqw1-cARExixEplaXkKKNeJGp-BDqqmN59w4_2ag3JEnBGkgcU10U0uX9yLUCGNNXTXvtWWU69NmEO3eJLE9GVW44TToxv5C2md-eyBuU4NnBuHbUUG3KJ3pIY8rorX9k0O_N2xWXcYw8tiRnlytS76nu2-IA2shJ5UINbwsxSu3f2KfpCMMC3wirV2-8voiwPRYMKhbAykeBVsKOk7w02lcH9DdecYNDxzokFaL0kTrkDVxIm2XslCCXkm-977Y29v4hqX3mJYDKpS__l1-LRJgzRN2OWK5YGsCqwG6Xqc3ZOLcBomZTXllON7ISlmQe3GxZkGesQ9KN5LRAjN7GdMD-pg5Gvq6cGCQ_QJuVvDgaUC3aQTJI57SZHHSL0fM52TN-dH5LObJK9XEFMy6nvVE8W4ixzC7E2KbEzsvSPHd8uZ0JGTmBUIEoBmfv7caC2k6jCeogfG7-46WWUCfraEPcDAj-rSq4pBtB4wK6fGc6daXJNzsVxUyZHwYkM-ZNILSBbQAjap3gAvJNoAQZ-0tNWIK802_bC9myF_OVCfp-zrIweOyFpk74FcMMC26tOW8c66q6OKMg0yESKrOOGnvMEVRsHb4KWfvMCGT6mvc1SxWIyUFyRMLtOnbQYL6LbRWROSjqTac03UH5QMPoKEO0HibQlzz98Qz66ufuQ9xM_hR2MtNE6abRL3eYQhG8pStPlVdhhkRfEyBxXwc7t0dNYbeqVOvdjycRkROukC1s_Tz3CcXytiidJQnzL2gpTiqz3jQtEAuq1GaMszqvxKTqvl6MFvZl8f2j5HN5HSKm6IIfX5w1adj2oDH8w8_cJZiMeggXCU5xMKl4OoNLL4ScwkL7xKUdRb90xY9wfl3UqnLYukTTR3tYk83nuS3tIBnrhPs0uDmVnUrjl_OHJ-jtSTV]--></g></svg>